<?xml version="1.0" standalone="no"?>
<!DOCTYPE svg PUBLIC "-//W3C//DTD SVG 1.1//EN" "http://www.w3.org/Graphics/SVG/1.1/DTD/svg11.dtd" >
<svg xmlns="http://www.w3.org/2000/svg">
<metadata>Generated by IcoMoon</metadata>
<defs>
<font id="icomoon" horiz-adv-x="1024">
<font-face units-per-em="1024" ascent="960" descent="-64" />
<missing-glyph horiz-adv-x="1024" />
<glyph unicode="&#x20;" horiz-adv-x="512" d="" />
<glyph unicode="&#xe900;" glyph-name="remove_red_eyevisibility" d="M512 554.667q52 0 90-38t38-90-38-90-90-38-90 38-38 90 38 90 90 38zM512 212.667q88 0 151 63t63 151-63 151-151 63-151-63-63-151 63-151 151-63zM512 746.667q158 0 286-88t184-232q-56-144-184-232t-286-88-286 88-184 232q56 144 184 232t286 88z" />
<glyph unicode="&#xe901;" glyph-name="location" horiz-adv-x="819" d="M409.6 940.8c-213.844 0-387.2-173.356-387.2-387.2 0-331.233 352-581.504 367.136-592.061l20.064-14.080 20.064 14.080c15.136 10.557 367.136 260.828 367.136 592.061 0 213.844-173.353 387.2-387.2 387.2zM409.6 34.401c-72.864 57.021-316.8 267.52-316.8 519.199 0 174.964 141.836 316.8 316.8 316.8 174.966 0 316.8-141.836 316.8-316.8 0-251.679-243.936-462.177-316.8-519.199zM409.6 694.4c-77.762 0-140.8-63.038-140.8-140.8s63.038-140.8 140.8-140.8c77.762 0 140.8 63.038 140.8 140.8 0 37.343-14.833 73.156-41.24 99.56-26.405 26.405-62.218 41.24-99.56 41.24zM409.6 483.2c-38.881 0-70.4 31.519-70.4 70.4s31.519 70.4 70.4 70.4c38.881 0 70.4-31.519 70.4-70.4s-31.519-70.4-70.4-70.4z" />
<glyph unicode="&#xe902;" glyph-name="datepicker" horiz-adv-x="1078" d="M909.474 865.684v74.105h-74.105v-74.105h-592.842v74.105h-74.105v-74.105h-148.211v-778.105c0-61.391 49.767-111.158 111.158-111.158h815.158c61.391 0 111.158 49.766 111.158 111.158v778.105h-148.211zM983.579 87.579c0-20.464-16.589-37.053-37.053-37.053h-815.158c-20.464 0-37.053 16.589-37.053 37.053v704h74.105v-111.158h74.105v111.158h592.842v-111.158h74.105v111.158h74.105v-704zM168.421 384h222.316v222.316h-222.316v-222.316zM242.526 532.211h74.105v-74.105h-74.105v74.105zM650.105 384h-222.316v222.316h222.316v-222.316zM576 532.211h-74.105v-74.105h74.105v74.105zM687.158 384h222.316v222.316h-222.316v-222.316zM761.263 532.211h74.105v-74.105h-74.105v74.105zM390.737 124.632h-222.316v222.316h222.316v-222.316zM316.632 272.842h-74.105v-74.105h74.105v74.105zM427.789 124.632h222.316v222.316h-222.316v-222.316zM501.895 272.842h74.105v-74.105h-74.105v74.105z" />
<glyph unicode="&#xe903;" glyph-name="user" horiz-adv-x="1092" d="M529.065 508.482c134.859 0 244.184 101.076 244.184 225.759s-109.326 225.759-244.184 225.759c-134.859 0-244.183-101.076-244.183-225.759s109.324-225.759 244.183-225.759zM529.015 884.796c89.906 0 162.793-67.385 162.793-150.508s-72.887-150.508-162.793-150.508c-89.907 0-162.79 67.385-162.79 150.508s72.884 150.508 162.79 150.508zM203.487 433.231h651.157c112.387 0 203.489-84.23 203.489-188.133v-263.386h-81.394v263.386c0 62.342-54.661 112.88-122.095 112.88h-651.157c-67.43 0-122.092-50.538-122.092-112.88v-263.386h-81.395v263.386c0 103.903 91.105 188.133 203.487 188.133z" />
<glyph unicode="&#xe904;" glyph-name="apple" d="M301.995-44.8c-20.181 13.483-38.101 29.995-53.077 49.067-16.341 19.755-31.488 40.533-45.397 62.037-32.683 47.787-58.24 100.053-75.947 155.136-21.333 64.085-31.701 125.44-31.701 185.472 0 66.987 14.507 125.44 42.752 174.507 20.907 38.4 52.053 70.528 89.6 93.099 36.267 22.613 78.507 34.987 121.173 35.84 14.933 0 31.147-2.133 48.213-6.4 12.373-3.413 27.307-8.96 45.653-15.787 23.467-8.96 36.267-14.507 40.533-15.787 13.653-5.12 25.173-7.253 34.133-7.253 6.827 0 16.64 2.133 27.52 5.547 6.187 2.133 17.92 5.973 34.56 13.227 16.469 5.973 29.525 11.093 39.893 14.933 15.787 4.693 31.061 8.96 44.8 11.093 16.64 2.56 33.152 3.413 48.981 2.133 30.293-2.133 58.027-8.533 82.773-17.92 43.52-17.493 78.635-44.8 104.832-83.627-11.093-6.827-21.333-14.763-30.933-23.467-20.779-18.347-38.4-40.107-52.48-64.213-18.347-32.853-27.733-69.973-27.477-107.52 0.64-46.208 12.373-86.827 35.84-122.027 16.512-25.6 38.571-47.531 65.451-65.536 13.227-8.96 24.832-15.147 35.84-19.2-5.12-16-10.752-31.573-17.28-46.933-14.805-34.432-32.427-67.413-53.333-98.56-18.432-26.88-32.939-46.933-43.947-60.16-17.152-20.48-33.707-35.84-50.347-46.805-18.347-12.16-39.893-18.603-61.952-18.603-14.933-0.64-29.867 1.28-44.117 5.419-12.373 4.053-24.576 8.619-36.523 13.781-12.501 5.717-25.429 10.581-38.613 14.507-16.213 4.267-32.853 6.315-49.664 6.272-17.067 0-33.707-2.133-49.493-6.187-13.227-3.755-26.027-8.363-38.699-13.867-17.92-7.467-29.653-12.373-36.48-14.507-13.824-4.096-27.989-6.571-42.24-7.467-22.187 0-42.837 6.4-63.403 19.2zM594.432 742.827c-29.013-14.507-56.576-20.651-84.181-18.603-4.267 27.563 0 55.893 11.52 86.912 10.24 26.453 23.893 50.347 42.667 71.68 19.627 22.187 43.093 40.533 69.547 53.76 28.16 14.507 55.040 22.187 80.64 23.467 3.413-29.013 0-57.6-10.667-88.32-9.728-27.307-24.235-52.48-42.667-75.093-18.56-22.187-41.6-40.533-67.669-53.76z" />
<glyph unicode="&#xe905;" glyph-name="googleplay" d="M52.053 960c-1.28-3.968-2.56-7.893-2.56-13.141v-991.104c0-9.259 2.603-14.507 7.851-19.755l487.040 515.968-492.331 508.032zM577.237 417.792l125.909-129.92-179.755-102.4s-228.48-129.877-354.475-202.197l408.32 434.517zM611.413 453.248l135.083-140.459c21.163 11.776 186.496 106.325 210.091 119.467 24.917 14.421 22.4 34.133 1.237 44.629-19.584 10.88-184.917 105.6-209.92 120.96l-136.491-144.597zM577.152 487.381l127.317 135.211-181.717 103.723s-296.235 169.472-394.795 226.048l449.195-464.981z" />
<glyph unicode="&#xe906;" glyph-name="briefcase" horiz-adv-x="1147" d="M1146.884-64h-1146.884v737.272c0.017 67.874 54.992 122.901 122.843 123.005h245.777v81.862c0 45.211 36.651 81.862 81.862 81.862 0.021 0 0.043 0 0.064 0h245.764c45.211 0 81.862-36.651 81.862-81.862v0-81.862h245.767c67.83-0.103 122.784-55.080 122.853-122.907v-737.339zM81.862 468.496v-450.604h983.099v450.604h-81.862v-163.724h-245.828v163.724h-327.69v-163.724h-245.858v163.724zM819.133 468.496v-81.862h81.862v81.862zM245.707 468.496v-81.862h81.862v81.862zM122.793 714.081c-22.549-0.034-40.828-18.27-40.931-40.8v-122.863h983.099v122.853c-0.017 22.615-18.346 40.944-40.96 40.961h-0.002zM450.543 878.138v-81.862h245.767v81.862z" />
<glyph unicode="&#xe907;" glyph-name="instagram" d="M512 960c-139.093 0-156.459-0.64-211.072-3.072-54.528-2.56-91.648-11.136-124.288-23.808-33.664-13.056-62.251-30.592-90.709-59.051s-46.037-57.003-59.051-90.709c-12.672-32.64-21.291-69.76-23.808-124.288-2.56-54.613-3.072-71.979-3.072-211.072s0.64-156.459 3.072-211.072c2.56-54.485 11.136-91.648 23.808-124.288 13.056-33.621 30.592-62.251 59.051-90.709 28.459-28.416 57.003-46.037 90.709-59.051 32.683-12.629 69.803-21.291 124.288-23.808 54.613-2.56 71.979-3.072 211.072-3.072s156.459 0.64 211.072 3.072c54.485 2.56 91.648 11.179 124.288 23.808 33.621 13.056 62.251 30.635 90.709 59.051 28.416 28.459 46.037 56.96 59.051 90.709 12.629 32.64 21.291 69.803 23.808 124.288 2.56 54.613 3.072 71.979 3.072 211.072s-0.64 156.459-3.072 211.072c-2.56 54.485-11.179 91.691-23.808 124.288-13.056 33.664-30.635 62.251-59.051 90.709-28.459 28.459-56.96 46.037-90.709 59.051-32.64 12.672-69.803 21.291-124.288 23.808-54.613 2.56-71.979 3.072-211.072 3.072zM512 867.84c136.661 0 152.96-0.683 206.933-3.029 49.92-2.347 77.013-10.624 95.019-17.707 23.979-9.259 40.96-20.352 58.965-38.229 17.877-17.92 28.971-34.944 38.229-58.923 6.997-18.005 15.36-45.099 17.621-95.019 2.432-54.016 2.987-70.229 2.987-206.933s-0.64-152.96-3.157-206.933c-2.603-49.92-10.923-77.013-17.963-95.019-9.557-23.979-20.437-40.96-38.357-58.965-17.877-17.877-35.157-28.971-58.88-38.229-17.92-6.997-45.44-15.36-95.36-17.621-54.357-2.432-70.357-2.987-207.317-2.987-137.003 0-153.003 0.64-207.317 3.157-49.963 2.603-77.483 10.923-95.403 17.963-24.277 9.557-40.96 20.437-58.837 38.357-17.963 17.877-29.44 35.157-38.4 58.88-7.040 17.92-15.317 45.44-17.92 95.36-1.92 53.76-2.603 70.357-2.603 206.677 0 136.363 0.683 153.003 2.603 207.403 2.603 49.92 10.88 77.397 17.92 95.317 8.96 24.32 20.437 40.96 38.4 58.923 17.877 17.877 34.56 29.397 58.837 38.315 17.92 7.083 44.843 15.403 94.763 17.963 54.4 1.92 70.4 2.56 207.317 2.56l1.92-1.28zM512 710.912c-145.28 0-262.912-117.76-262.912-262.912 0-145.28 117.76-262.912 262.912-262.912 145.28 0 262.912 117.76 262.912 262.912 0 145.28-117.76 262.912-262.912 262.912zM512 277.333c-94.293 0-170.667 76.373-170.667 170.667s76.373 170.667 170.667 170.667 170.667-76.373 170.667-170.667-76.373-170.667-170.667-170.667zM846.763 721.28c0-33.92-27.563-61.44-61.44-61.44-33.92 0-61.44 27.563-61.44 61.44s27.563 61.397 61.44 61.397c33.835 0.043 61.44-27.52 61.44-61.397z" />
<glyph unicode="&#xe908;" glyph-name="flag" horiz-adv-x="945" d="M78.713-64h-78.713v1024h400.533c0.031 0 0.068 0 0.104 0 32.56 0 62.026-13.252 83.297-34.657l0.006-0.006 32.797-32.681c7.263-6.955 17.091-11.283 27.929-11.428h400.561v-551.4h-400.533c-0.051 0-0.112 0-0.172 0-32.576 0-62.057 13.251-83.346 34.658l-0.005 0.005-32.622 32.681c-7.263 6.955-17.091 11.283-27.929 11.428h-321.907v-472.571zM78.713 881.287v-393.887h321.82c0.017 0 0.036 0 0.056 0 32.576 0 62.056-13.251 83.346-34.658l32.686-32.686c7.269-6.949 17.091-11.282 27.924-11.457h321.913v393.974h-321.762c-0.102 0-0.223-0.001-0.344-0.001-32.491 0-61.899 13.206-83.147 34.543l-0.004 0.004-32.651 32.71c-7.263 6.955-17.091 11.283-27.929 11.428h-0.028z" />
<glyph unicode="&#xe909;" glyph-name="wifi" horiz-adv-x="1259" d="M495.95 69.477c0 73.773 59.805 133.578 133.578 133.578s133.578-59.805 133.578-133.578c0-73.773-59.805-133.578-133.578-133.578-0.012 0-0.024 0-0.036 0h0.002c-73.735 0.077-133.487 59.84-133.545 133.573v0.006zM584.969 69.477c0-24.591 19.935-44.526 44.526-44.526s44.526 19.935 44.526 44.526c0 24.591-19.935 44.526-44.526 44.526v0c-24.569-0.039-44.473-19.955-44.492-44.524v-0.002zM440.724 258.247l-63.217 63.217c64.468 64.535 153.566 104.455 251.988 104.455s187.519-39.92 251.985-104.452l0.003-0.003-63.217-63.217c-48.335 48.284-115.083 78.145-188.805 78.145-73.671 0-140.377-29.82-188.707-78.047l0.004 0.004zM314.9 384.377l-63.352 63.183h-0.982c96.735 97.076 230.555 157.142 378.405 157.142s281.669-60.066 378.389-157.126l0.016-0.016-63.082-63.183c-80.55 80.511-191.808 130.305-314.697 130.305s-234.146-49.794-314.698-130.307l0.002 0.002zM629.8 692.945c-0.068 0-0.148 0-0.228 0-172.148 0-327.996-69.784-440.8-182.607l-0.001-0.001-62.811 62.777c128.885 128.823 306.905 208.498 503.535 208.498s374.649-79.674 503.537-208.5l-0.002 0.002-62.777-62.777c-112.791 112.794-268.609 182.562-440.722 182.574h-0.002zM629.8 871.185c-0.068 0-0.149 0-0.231 0-221.361 0-421.759-89.752-566.789-234.851l-0.003-0.003-62.777 62.946c161.071 161.182 383.648 260.884 629.512 260.884s468.441-99.701 629.507-260.879l0.005-0.005-62.743-62.946c-145.031 145.062-345.407 234.787-566.739 234.787-0.004 0-0.009 0-0.013 0v0z" />
<glyph unicode="&#xe90a;" glyph-name="medium" horiz-adv-x="1280" d="M1280 809.155h-50.598c-18.784 0-45.414-27.433-45.414-45v-635.745c0-17.568 26.63-41.491 45.414-41.491h50.598v-150.918h-458.694v150.918h96.013v668.341h-4.659l-224.205-819.26h-173.54l-221.322 819.26h-5.622v-668.341h96.015v-150.918h-383.985v150.918h49.191c20.268 0 46.824 23.923 46.824 41.491v635.745c0 17.567-26.556 45-46.824 45h-49.191v150.845h480.148l157.707-592.842h4.289l159.11 592.842h478.746v-150.845z" />
<glyph unicode="&#xe90b;" glyph-name="casai-logo-white" horiz-adv-x="3307" d="M3085.126 849.236c0.776 61.338 50.681 110.764 112.13 110.764 0.012 0 0.023 0 0.035 0h-0.002c60.431-0.196 109.344-49.23 109.344-109.688 0-0.378-0.002-0.756-0.006-1.133v0.058c-1.089-59.928-49.404-108.216-109.239-109.262l-0.099-0.001c-60.587 0.87-109.668 48.938-112.156 109.036l-0.007 0.227zM3286.776-43.222c0-2.886-2.34-5.226-5.226-5.226v0h-171.271c-2.886 0-5.226 2.34-5.226 5.226v0 699.485c0 2.886 2.34 5.226 5.226 5.226v0h171.271c2.886 0 5.226-2.34 5.226-5.226v0zM637.178 72.067l-105.213 98.037c-7.126 6.651-11.076 0.75-11.076 0.75v0.3c-37.922-43.955-93.696-71.609-155.93-71.609-113.536 0-205.575 92.039-205.575 205.575s92.039 205.575 205.575 205.575c0.030 0 0.061 0 0.091 0h-0.005c62.257-0.725 117.977-28.109 156.383-71.246l0.186-0.213c5.726-6.151 10.201-1.3 10.201-1.3l103.238 102.112c1.332 1.229 2.164 2.983 2.164 4.932 0 1.697-0.631 3.246-1.671 4.427l0.006-0.007c-67.071 74.075-163.598 120.412-270.947 120.412-201.609 0-365.045-163.436-365.045-365.045s163.436-365.045 365.045-365.045c108.39 0 205.747 47.24 272.605 122.255l0.318 0.363c1.092 1.242 1.758 2.882 1.758 4.677 0 1.975-0.806 3.761-2.107 5.048l-0.001 0.001zM1907.008 369.553l-67.333 17.077c-67.158 18.152-111.564 30.004-111.564 76.134 0 41.255 35.004 67.958 89.411 67.958 61.733 0 100.237-26.753 108.413-74.784 0.213-3.584 3.171-6.409 6.79-6.409 0.118 0 0.236 0.003 0.353 0.009l-0.016-0.001h168.271c2.771 0.366 4.888 2.713 4.888 5.555 0 0.227-0.014 0.452-0.040 0.672l0.003-0.027c-4.851 50.356-40.005 214.701-290.035 214.701-128.416 0-266.608-68.083-266.608-217.527 0-133.766 97.962-175.521 203.8-200.599l66.108-16.777c74.834-19.302 121.265-41.38 121.265-91.811 0-63.033-76.009-67.958-99.262-67.958-54.357 0-121.765 17.152-134.016 99.062l-0.85 5.001-1.3-0.75c-1.117 1.021-2.611 1.647-4.25 1.65h-166.221c-0.219 0.025-0.474 0.040-0.731 0.040-3.642 0-6.613-2.873-6.769-6.476v-0.014c11.751-151.418 126.74-238.254 315.539-238.254 133.641 0 276.434 55.657 276.434 211.926 0.025 149.093-113.439 196.749-212.276 221.602zM2760.237 568.752c-3.45 3.625-7.001 7.201-10.576 10.701-0.25 0.175-0.425 0.425-0.675 0.625-2.5 2.325-4.851 4.601-7.326 6.876-0.975 0.925-2.025 1.775-3.025 2.7l-0.175 0.175c-0.375 0.375-0.8 0.675-1.175 1.050q-5.176 4.526-10.526 8.851l-1.65 1.35c-0.114 0.13-0.256 0.232-0.418 0.297l-0.007 0.003c-3.7 2.95-7.326 5.651-11.001 8.376 0 0-0.3 0.175-0.425 0.3-1.225 0.925-2.5 1.775-3.7 2.65l-2.65 1.9c-44.851 33.015-101.187 52.837-162.152 52.837-2.345 0-4.683-0.029-7.013-0.088l0.345 0.007c-81.484-0.394-155.526-31.935-210.899-83.317l0.198 0.182c-20.436-18.643-38.465-39.331-53.949-61.901l-0.782-1.207c-41.204-60.556-65.788-135.302-65.788-215.79 0-0.716 0.002-1.431 0.006-2.146v0.11c-0.008-0.891-0.012-1.944-0.012-2.999 0-79.405 24.618-153.061 66.637-213.751l-0.818 1.248c16.209-23.234 34.232-43.449 54.378-61.324l0.354-0.308c55.706-49.874 129.663-80.375 210.743-80.41h0.007c5.476 0 10.951 0.175 16.352 0.425l5.726 0.425c3.5 0.25 7.001 0.5 10.451 0.85 2.325 0.25 4.601 0.625 6.951 0.925q4.526 0.55 9.051 1.3c2.5 0.425 5.001 0.85 7.501 1.35s5.476 1.050 8.176 1.6 5.301 1.225 7.926 1.85 5.001 1.225 7.501 1.9 5.601 1.525 8.376 2.5c1.525 0.5 3.125 0.925 4.676 1.425 50.894 14.899 94.505 41.304 129.516 76.31v0-68.633c-0.036-0.381-0.057-0.823-0.057-1.27 0-7.899 6.403-14.302 14.302-14.302 0.266 0 0.531 0.007 0.793 0.022l-0.037-0.002h132.641c21.028 0 20.477 7.501 20.302 16.552v45.781c0 0.175 0 0.375 0 0.55v630.527c0.036 0.381 0.057 0.823 0.057 1.27 0 7.899-6.403 14.302-14.302 14.302-0.266 0-0.531-0.007-0.793-0.022l0.037 0.002h-132.616c-14.577 0-20.778-1.9-20.778-12.502zM2632.621 125.223c-5.651-2.5-11.426-4.601-17.352-6.526-16.742-5.498-36.011-8.669-56.020-8.669-26.571 0-51.836 5.591-74.683 15.661l1.187-0.467c-5.651 2.5-11.126 5.176-16.477 8.126-59.393 34.326-98.718 97.531-98.718 169.921s39.325 135.595 97.777 169.418l0.941 0.502c4.363 2.517 9.774 5.235 15.334 7.678l1.143 0.448c21.66 9.603 46.925 15.194 73.496 15.194 20.009 0 39.278-3.171 57.331-9.037l-1.311 0.368c5.901-1.9 11.676-4.050 17.352-6.526 68.474-31.31 115.195-99.216 115.195-178.034s-46.72-146.724-113.978-177.535l-1.217-0.5zM1253.278 568.752c-3.45 3.625-7.001 7.201-10.576 10.701-0.25 0.175-0.425 0.425-0.675 0.625-2.5 2.325-4.851 4.601-7.326 6.876-0.975 0.925-2.025 1.775-3.025 2.7l-0.175 0.175c-0.375 0.375-0.8 0.675-1.175 1.050q-5.176 4.526-10.526 8.851l-1.65 1.35c-0.114 0.13-0.256 0.232-0.418 0.297l-0.007 0.003c-3.7 2.95-7.326 5.651-11.001 8.376 0 0-0.3 0.175-0.425 0.3-1.225 0.925-2.5 1.775-3.7 2.65l-2.65 1.9c-44.851 33.015-101.187 52.837-162.152 52.837-2.345 0-4.683-0.029-7.013-0.088l0.345 0.007c-81.484-0.394-155.526-31.935-210.899-83.317l0.198 0.182c-20.436-18.643-38.465-39.331-53.949-61.901l-0.782-1.207c-41.204-60.554-65.788-135.297-65.788-215.783 0-0.719 0.002-1.437 0.006-2.155v0.111c-0.008-0.891-0.012-1.944-0.012-2.999 0-79.405 24.618-153.061 66.637-213.751l-0.818 1.248c16.209-23.234 34.232-43.449 54.378-61.324l0.354-0.308c55.682-49.899 129.618-80.432 210.684-80.51h0.016c5.476 0 10.951 0.175 16.352 0.425l5.726 0.425c3.5 0.25 7.001 0.5 10.451 0.85 2.325 0.25 4.601 0.625 6.951 0.925q4.526 0.55 9.051 1.3c2.5 0.425 5.001 0.85 7.501 1.35s5.476 1.050 8.176 1.6 5.301 1.225 7.926 1.85 5.001 1.225 7.501 1.9 5.601 1.525 8.376 2.5c1.525 0.5 3.125 0.925 4.676 1.425 50.894 14.899 94.505 41.304 129.516 76.31v0-68.633c-0.036-0.381-0.057-0.823-0.057-1.27 0-7.899 6.403-14.302 14.302-14.302 0.266 0 0.531 0.007 0.793 0.022l-0.037-0.002h133.641c21.028 0 19.552 7.501 19.377 16.552v45.881c0 0.175 0 0.375 0 0.55v630.527c0.036 0.381 0.057 0.823 0.057 1.27 0 7.899-6.403 14.302-14.302 14.302-0.266 0-0.531-0.007-0.793-0.022l0.037 0.002h-132.641c-14.577 0-20.778-1.9-20.778-12.502zM1125.662 125.223c-5.651-2.5-11.426-4.601-17.352-6.526-16.742-5.498-36.011-8.669-56.020-8.669-26.571 0-51.836 5.591-74.683 15.661l1.187-0.467c-5.651 2.5-11.126 5.176-16.477 8.126-59.393 34.326-98.718 97.531-98.718 169.921s39.325 135.595 97.777 169.418l0.941 0.502c4.363 2.517 9.775 5.236 15.335 7.678l1.142 0.448c21.66 9.603 46.925 15.194 73.496 15.194 20.009 0 39.278-3.171 57.331-9.037l-1.311 0.368c5.901-1.9 11.676-4.050 17.352-6.526 68.474-31.31 115.195-99.216 115.195-178.034s-46.72-146.724-113.978-177.535l-1.217-0.5z" />
<glyph unicode="&#xe90c;" glyph-name="i18n-globe" d="M512-64c-0.011 0-0.024 0-0.037 0-282.77 0-512 229.23-512 512 0 141.394 57.315 269.402 149.98 362.057v0c92.658 92.658 220.665 149.969 362.057 149.969 282.784 0 512.026-229.242 512.026-512.026 0-141.392-57.31-269.399-149.969-362.057v0c-92.14-92.623-219.689-149.945-360.626-149.945-0.503 0-1.006 0.001-1.509 0.002h0.078zM343.040 170.423c34.231-82.359 81.225-137.545 132.389-155.429v140.434c-48.128 1.863-93.658 7.238-138.007 15.91l5.619-0.915zM680.96 170.423c-38.733-7.758-84.263-13.132-130.709-14.942l-1.68-0.052v-139.337c50.944 17.81 97.975 72.594 132.389 154.331zM909.531 259.657c-40.705-27.544-87.611-50.528-137.624-66.574l-3.908-1.083c-16.769-52.942-39.13-98.994-67.096-140.994l1.267 2.023-3.035-1.463 1.134-1.463 1.902 2.926c90.809 44.411 162.585 115.986 206.088 204.027l1.163 2.602zM115.566 260.754l-0.366-1.499 1.426-0.951c44.449-91.071 116.175-163.057 204.426-206.671l2.605-1.164c-27.541 40.705-50.525 87.61-66.573 137.622l-1.084 3.91c-53.058 16.875-99.204 39.37-141.268 67.492l2.004-1.261zM548.571 411.429v-182.857c57.97 2.631 112.685 11.278 165.174 25.36l-5.357-1.223c12.649 46.979 20.927 101.388 23.001 157.381l0.039 1.339zM292.571 411.429c2.426-57.864 11.084-112.596 25.343-165.021l-1.206 5.204c46.896-12.47 101.289-20.737 157.23-22.992l1.49-0.048v182.857zM804.571 411.429c-1.848-48.116-7.21-93.649-15.871-138.001l0.913 5.613c82.322 34.231 137.545 81.225 155.429 132.389zM80.091 411.429c17.847-50.944 72.631-97.975 154.331-132.389-7.739 38.715-13.112 84.244-14.941 130.684l-0.053 1.704zM789.577 616.96c7.758-38.733 13.132-84.263 14.942-130.709l0.052-1.68h140.434c-17.883 51.2-73.070 98.158-155.429 132.389zM548.571 667.429v-182.857h182.857c-2.409 57.856-11.068 112.589-25.342 165.008l1.204-5.191c-46.896 12.47-101.289 20.737-157.23 22.992l-1.49 0.048zM475.429 667.429c-57.97-2.631-112.685-11.278-165.174-25.36l5.357 1.223c-12.646-46.977-20.924-101.384-23-157.377l-0.040-1.343h182.857zM235.52 616.96c-82.322-34.194-137.509-81.189-155.429-132.389h139.337c2.277 48.397 8.030 93.856 17.069 138.118l-0.977-5.73zM700.343 845.531c27.544-40.705 50.528-87.611 66.574-137.624l1.083-3.908c53.325-17.28 99.676-40.256 141.843-68.926l-1.92 1.232v-0.366l0.329-0.695h1.097l-1.536 1.024c-44.294 91.715-116.231 164.23-204.869 208.098l-2.601 1.164zM324.242 844.178c-91.99-44.266-164.71-116.36-208.611-205.233l-1.162-2.603c40.705 27.541 87.61 50.525 137.622 66.573l3.91 1.084c17.44 53.429 40.595 99.858 69.464 142.070l-1.222-1.892zM548.571 879.909v-139.337c48.397-2.277 93.856-8.030 138.118-17.069l-5.73 0.977c-34.194 82.286-81.189 137.545-132.389 155.429zM475.429 879.909c-50.944-17.847-97.975-72.667-132.389-154.331 38.715 7.739 84.244 13.112 130.684 14.941l1.704 0.053z" />
<glyph unicode="&#xe90d;" glyph-name="dropdown-arrow" horiz-adv-x="1887" d="M943.565 216.116l-743.884 743.884-199.681-198.275 745.29-743.884c50.835-50.542 120.907-81.783 198.275-81.783s147.44 31.241 198.289 81.796l-0.014-0.013 745.29 743.884-199.681 198.275z" />
<glyph unicode="&#xe90e;" glyph-name="checkmark" horiz-adv-x="1379" d="M364.142-64c-0.125 0-0.273-0.001-0.421-0.001-44.724 0-85.237 18.030-114.666 47.218l-249.055 249.055 77.088 76.532 248.748-248.51c9.839-9.92 23.474-16.061 38.544-16.061s28.705 6.141 38.54 16.058l899.471 899.709 77.088-76.532-900.341-900.262c-29.418-29.177-69.931-47.207-114.655-47.207-0.12 0-0.24 0-0.36 0h0.019z" />
<glyph unicode="&#xe90f;" glyph-name="eye" horiz-adv-x="1549" d="M324.965 73.268c-134.12 86.81-240.661 205.702-310.385 346.109l-2.275 5.063-12.305 23.559 12.305 23.365c141.708 285.927 428.378 480.765 761.321 488.616l1.032 0.019c333.959-7.829 620.641-202.587 760.154-483.376l2.277-5.065 12.267-23.365-12.267-23.365c-141.651-286.074-428.365-481.048-761.391-488.966l-1.041-0.020c-167.497 3.968-322.384 54.663-453.077 139.482l3.383-2.058zM365.075 448c0-226.229 183.395-409.623 409.623-409.623s409.623 183.395 409.623 409.623c0 226.229-183.395 409.623-409.623 409.623-0.014 0-0.027 0-0.041 0h0.002c-226.122-0.266-409.358-183.502-409.623-409.598v-0.025zM1286.542 448c-0.062-91.971-24.303-178.267-66.71-252.892l1.328 2.538c85.749 68.57 156.603 151.695 209.702 246.14l2.177 4.214c-55.255 98.65-126.097 181.764-210.173 249.026l-1.667 1.289c41.071-72.076 65.3-158.361 65.343-250.302v-0.012zM116.24 448c55.289-98.668 126.17-181.796 210.287-249.063l1.671-1.291c-41.135 72.071-65.388 158.38-65.388 250.354s24.253 178.281 66.712 252.879l-1.323-2.526c-85.789-68.57-156.679-151.695-209.819-246.142l-2.178-4.211zM569.906 448c0.022 113.087 91.702 204.753 204.792 204.753 113.104 0 204.792-91.689 204.792-204.792s-91.689-204.792-204.792-204.792v0c-113.089 0.089-204.743 91.742-204.831 204.823v0.008zM672.282 448c0-0.012 0-0.025 0-0.039 0-56.563 45.853-102.416 102.416-102.416s102.416 45.853 102.416 102.416c0 56.563-45.853 102.416-102.416 102.416-0.014 0-0.027 0-0.041 0h0.002c-56.505-0.089-102.288-45.871-102.377-102.368v-0.009z" />
<glyph unicode="&#xe910;" glyph-name="bell" d="M522.625-64c-3.518 0-7.093 0-10.611 0.338-87.994 0.239-161.405 62.381-178.996 145.161l-0.214 1.201h-332.805v73.181c121.181 0 219.431 98.181 219.543 219.335v146.373c0.272 127.147 81.564 235.235 194.978 275.401l2.048 0.632c-8.733 15.128-14.002 33.221-14.297 52.52l-0.001 0.086c0 60.625 49.146 109.772 109.772 109.772s109.772-49.146 109.772-109.772v0c-0.218-19.513-5.475-37.752-14.526-53.538l0.284 0.538c115.462-40.798 196.754-148.887 197.026-276v-146.395c0.112-121.166 98.362-219.346 219.543-219.346v0-73.181h-332.58c-12.271-83.263-83.18-146.463-168.869-146.559h-0.010zM408.857 82.559c15.542-42.855 55.805-72.961 103.13-73.181h0.027c3.040-0.281 6.108-0.422 9.148-0.422 45.55 0.036 83.881 30.901 95.257 72.855l0.16 0.692zM512.014 740.626c-121.181 0-219.431-98.181-219.543-219.335v-146.373c-0.060-87.21-38.248-165.489-98.794-219.077l-0.31-0.269h637.154c-60.856 53.857-99.044 132.136-99.104 219.335v146.373c-0.112 121.116-98.282 219.266-219.395 219.346h-0.008zM512.014 886.988c-20.208 0-36.591-16.382-36.591-36.591s16.382-36.591 36.591-36.591c20.208 0 36.591 16.382 36.591 36.591v0c-0.096 20.136-16.441 36.422-36.59 36.422 0 0 0 0 0 0v0z" />
<glyph unicode="&#xe911;" glyph-name="pin" d="M51.38-64v0l-51.38 51.353 282.247 281.89-198.999 199.026 119.025 119.052c19.644 19.607 46.763 31.731 76.713 31.731s57.068-12.124 76.714-31.733l49.947-49.947 190.66 190.357c-17.274 19.092-27.846 44.533-27.846 72.442 0 29.931 12.158 57.022 31.806 76.604l0.003 0.003 82.891 83.221 341.251-340.865-83.221-82.946c-19.58-19.67-46.678-31.843-76.618-31.843-27.92 0-53.369 10.585-72.55 27.961l0.092-0.082-190.66-190.715 49.922-49.922c19.58-19.656 31.686-46.771 31.686-76.713s-12.106-57.056-31.689-76.716l-119.049-119.049-198.999 198.999-281.917-282.082zM278.973 546.949c-10.082-0.016-19.201-4.127-25.784-10.758l-67.922-67.922 347.002-347.030 68.030 68.030c6.616 6.556 10.712 15.645 10.712 25.69s-4.096 19.134-10.709 25.687l-295.625 295.543c-6.559 6.619-15.629 10.74-25.662 10.815h-0.014zM645.872 676.542v0l-190.302-190.302 94.835-93.596 189.202 190.33-93.734 93.569zM683.162 857.074v0l-31.841-31.676c-6.482-6.57-10.485-15.6-10.485-25.565 0-0.049 0-0.097 0-0.146v0.008c0.011-9.894 4.015-18.851 10.486-25.347l187.137-187.137c6.556-6.616 15.645-10.712 25.69-10.712s19.134 4.096 25.687 10.709l0.003 0.003 31.786 31.538-238.463 238.463z" />
<glyph unicode="&#xe912;" glyph-name="clock" horiz-adv-x="1035" d="M173.825-63.972l-52.459 52.459 93.87 93.505c-87.181 80.497-141.593 195.371-141.593 322.954 0 44.99 6.766 88.4 19.336 129.267l-0.823-3.11c-56.306 44.32-92.132 112.475-92.132 188.998 0 120.894 89.417 220.903 205.723 237.501l1.28 0.15c9.901 1.447 21.332 2.274 32.956 2.274 87.101 0 163.363-46.41 205.406-115.85l0.602-1.070c21.309 3.784 45.958 6.056 71.098 6.268l0.197 0.001c25.362-0.232 50.019-2.513 74.026-6.686l-2.702 0.389c42.652 70.446 118.873 116.806 205.923 116.806 132.504 0 239.919-107.415 239.919-239.919 0-76.492-35.797-144.624-91.553-188.556l-0.511-0.388c11.677-37.482 18.425-80.581 18.47-125.249v-0.024c-0.324-127.675-54.625-242.604-141.279-323.222l-0.271-0.25 93.87-93.505-52.516-52.375-99.437 99.802c-68.603-46.106-153.068-73.59-243.953-73.59s-175.351 27.483-245.54 74.593l1.587-1.003-99.409-100.168zM147.623 405.83c0-204.143 165.491-369.634 369.634-369.634s369.634 165.491 369.634 369.634c0 204.133-165.475 369.618-369.604 369.634h-0.002c-0.712 0.005-1.554 0.008-2.397 0.008-202.839 0-367.273-164.434-367.273-367.273 0-0.833 0.003-1.665 0.008-2.497l-0.001 0.128zM184.817 876.672c-65.238-23.386-111.072-84.674-111.104-156.672v-0.004c-0.002-0.336-0.004-0.734-0.004-1.132 0-44.771 17.92-85.356 46.979-114.974l-0.025 0.026c51.812 102.325 139.269 180.306 245.668 218.597l3.079 0.968c-30.651 38.244-77.36 62.523-129.739 62.523-19.656 0-38.514-3.419-56.011-9.695l1.158 0.362zM665.105 823.51c109.213-39.422 196.481-117.235 247.246-216.772l1.163-2.512c29.402 29.909 47.553 70.959 47.553 116.249 0 91.607-74.262 165.869-165.869 165.869-0.113 0-0.227 0-0.34 0h-0.377c-0.034 0-0.074 0-0.115 0-52.299 0-98.894-24.424-129-62.489l-0.263-0.344zM508.008 365.909c-16.953 13.648-27.712 34.397-27.72 57.659v240.988h73.91v-240.987l124.964-99.802-46.612-57.66z" />
<glyph unicode="&#xe913;" glyph-name="house" horiz-adv-x="1077" d="M831.537-64h-585.827c-60.641 0.063-109.784 49.197-109.863 109.828v454.417l-83.825-83.825-52.022 51.994 461.009 460.619c20.175 19.179 47.524 30.976 77.628 30.976s57.454-11.797 77.676-31.021l-0.048 0.045 461.009-460.619-51.994-51.994-83.825 83.825v-454.409c-0.079-60.658-49.255-109.804-109.916-109.836h-0.003zM392.167 338.777h292.914v-329.535h146.457c20.219 0.016 36.605 16.402 36.621 36.62v527.625l-303.552 303.942c-6.639 6.673-15.829 10.803-25.983 10.803s-19.344-4.13-25.981-10.801l-0.002-0.002-303.58-303.942v-527.651c0.048-20.21 16.434-36.578 36.647-36.593h146.458v329.507zM465.381 265.563v-256.209h146.485v256.209h-146.485z" />
<glyph unicode="&#xe914;" glyph-name="basket" horiz-adv-x="1090" d="M820.734-64h-551.359c-0.020 0-0.044 0-0.067 0-55.031 0-101.266 37.666-114.328 88.624l-0.178 0.818-154.801 619.474h238.642l56.313 225.672c13.251 51.761 59.478 89.412 114.499 89.412 0.058 0 0.116 0 0.173 0h270.923c0.033 0 0.073 0 0.112 0 55.010 0 101.229-37.636 114.313-88.564l0.178-0.818 56.313-225.672h238.702l-154.801-619.504c-13.241-51.776-59.475-89.442-114.506-89.442-0.045 0-0.089 0-0.134 0h0.007zM179.723 251.084l50.412-206.352c4.348-17.327 19.785-29.954 38.172-29.954 0.028 0 0.056 0 0.083 0h73.592l-44.242 236.305h-118.018zM794.494 251.084v0l-44.092-236.305h70.331c17.872 0.64 32.676 13.048 36.933 29.68l0.059 0.274 54.726 206.352h-118.078zM584.578 251.084v-236.305h85.458l44.511 236.305h-130.089zM375.83 251.084v0l44.511-236.305h85.458v236.305h-130.089zM853.473 566.168l-44.511-236.305h121.283l59.099 236.305zM584.488 566.168v-236.305h144.557l44.481 236.305h-189.068zM316.671 566.168l44.511-236.305h144.557v236.305zM100.854 566.168l59.099-236.305h121.223l-44.541 236.305h-135.84zM409.648 881.252c-0.023 0-0.051 0-0.079 0-18.387 0-33.824-12.627-38.114-29.683l-0.058-0.271-51.61-206.352h450.565l-49.244 206.352c-4.348 17.327-19.785 29.954-38.172 29.954-0.028 0-0.056 0-0.083 0h-273.204z" />
<glyph unicode="&#xe915;" glyph-name="heart" horiz-adv-x="1128" d="M564.137-64.031v0l-469.889 469.307c-58.95 58.803-95.422 140.116-95.422 229.949 0 179.017 144.837 324.205 323.72 324.775h0.055c89.174-0.248 169.851-36.423 228.359-94.805l-0.006 0.006 13.306-13.674 13.306 13.674c58.509 58.384 139.198 94.561 228.338 94.799h0.046c0.264 0.001 0.576 0.001 0.888 0.001 88.946 0 169.426-36.248 227.473-94.779l0.022-0.022c58.168-59.158 94.079-140.359 94.079-229.947s-35.911-170.789-94.124-229.993l0.045 0.046-470.042-469.337zM321.589 879.703c-66.69-0.176-126.984-27.41-170.513-71.298l-0.016-0.016c-43.824-44.564-70.881-105.736-70.881-173.227s27.056-128.663 70.914-173.261l-0.033 0.034 413.077-412.218 413.353 412.372c43.824 44.564 70.881 105.736 70.881 173.227s-27.056 128.663-70.914 173.261l0.033-0.034c-43.778 43.819-104.279 70.924-171.111 70.924s-127.333-27.105-171.109-70.922l-0.002-0.002-71.13-70.333-70.517 69.781c-43.822 44.022-104.362 71.37-171.291 71.713h-0.066z" />
<glyph unicode="&#xe916;" horiz-adv-x="3130" d="M3130.43 74.298c0-0.007 0-0.015 0-0.024 0-76.419-61.95-138.369-138.369-138.369-0.008 0-0.017 0-0.025 0h-2853.644c-76.432 0-138.392 61.96-138.392 138.392v0 747.31c0 0.007 0 0.015 0 0.024 0 76.419 61.95 138.369 138.369 138.369 0.008 0 0.017 0 0.025 0h2853.644c76.422-0.013 138.369-61.969 138.369-138.392v-747.31z" />
<glyph unicode="&#xe917;" horiz-adv-x="3130" d="M540.67 784.899h-255.040c-30.549-0.013-55.31-24.775-55.324-55.322v-564.906c0-0.007 0-0.015 0-0.024 0-30.541 24.759-55.3 55.3-55.3 0.008 0 0.017 0 0.025 0h254.967c0.007 0 0.015 0 0.024 0 30.564 0 55.344 24.763 55.371 55.321v564.908c-0.013 30.549-24.775 55.31-55.322 55.324h-0.001zM413.185 149.92c-20.352 0-36.851 16.499-36.851 36.851s16.499 36.851 36.851 36.851c20.352 0 36.851-16.499 36.851-36.851v0c0-20.352-16.499-36.851-36.851-36.851v0zM552.55 241.597h-278.801v416.671h278.801z" />
<glyph unicode="&#xe918;" horiz-adv-x="3130" d="M804.72 684.211l-15.485-46.953h-19.943l50.747 149.206h23.263l50.913-149.277h-20.56l-15.912 46.953h-53.024zM853.689 699.269l-14.821 42.969c-3.13 9.723-5.336 18.615-7.517 27.247h-0.545c-2.016-8.632-4.411-17.927-7.351-26.986l-14.631-43.206z" />
<glyph unicode="&#xe919;" horiz-adv-x="3130" d="M914.277 744.444l21.058-60.043c3.557-9.983 6.426-18.852 8.632-27.674h0.664c2.371 8.869 5.502 17.69 9.059 27.674l20.821 60.043h20.37l-42.115-107.162h-18.52l-40.693 107.162z" />
<glyph unicode="&#xe91a;" horiz-adv-x="3130" d="M1084.517 663.011c-0.010-0.676-0.015-1.475-0.015-2.275 0-8.239 0.583-16.342 1.71-24.269l-0.106 0.91h-17.501l-1.779 13.517h-0.664c-7.275-9.71-18.755-15.926-31.686-15.926-0.374 0-0.746 0.005-1.117 0.016l0.055-0.001c-0.675-0.053-1.462-0.084-2.256-0.084-16.842 0-30.496 13.653-30.496 30.496 0 0.146 0.001 0.292 0.003 0.438v-0.022c0 25.895 23.002 40.1 64.454 39.839v2.205c0.124 0.878 0.195 1.892 0.195 2.922 0 12.154-9.853 22.006-22.006 22.006-0.896 0-1.779-0.054-2.647-0.158l0.105 0.010c-0.177 0.002-0.386 0.003-0.595 0.003-10.251 0-19.808-2.97-27.858-8.096l0.21 0.125-4.458 13.090c9.98 5.846 21.977 9.299 34.78 9.299 0.228 0 0.455-0.001 0.683-0.003h-0.035c32.986 0 40.953-22.338 40.953-43.823zM1065.546 692.013c-21.342 0.427-45.34-3.296-45.34-24.117-0.048-0.481-0.076-1.039-0.076-1.603 0-9.416 7.634-17.050 17.050-17.050 0.402 0 0.801 0.014 1.196 0.041l-0.053-0.003c0.257-0.009 0.558-0.014 0.861-0.014 11.683 0 21.639 7.391 25.448 17.753l0.060 0.188c0.544 1.726 0.858 3.711 0.858 5.77 0 0.148-0.002 0.295-0.005 0.442v-0.022z" />
<glyph unicode="&#xe91b;" horiz-adv-x="3130" d="M1123.953 764.149c-6.588 0.389-11.783 5.826-11.783 12.477 0 6.801 5.433 12.333 12.195 12.493h0.015c0.173 0.009 0.376 0.014 0.58 0.014 6.548 0 11.857-5.308 11.857-11.857 0-0.18-0.004-0.359-0.012-0.538l0.001 0.025c0.004-0.122 0.007-0.266 0.007-0.41 0-6.745-5.468-12.212-12.212-12.212-0.144 0-0.288 0.002-0.431 0.007l0.021-0.001zM1114.657 637.282v107.162h19.469v-107.162z" />
<glyph unicode="&#xe91c;" horiz-adv-x="3130" d="M1165.309 794.455h19.469v-157.221h-19.469z" />
<glyph unicode="&#xe91d;" horiz-adv-x="3130" d="M1291.513 663.011c-0.009-0.657-0.014-1.432-0.014-2.208 0-8.26 0.556-16.39 1.634-24.354l-0.103 0.928h-17.501l-1.779 13.517h-0.664c-7.285-9.711-18.771-15.927-31.71-15.927-0.382 0-0.762 0.005-1.142 0.016l0.056-0.001c-0.661-0.051-1.431-0.080-2.208-0.080-16.868 0-30.543 13.675-30.543 30.543 0 0.128 0.001 0.256 0.002 0.384v-0.019c0 25.895 23.002 40.1 64.454 39.839v2.205c0.124 0.878 0.195 1.892 0.195 2.922 0 12.154-9.853 22.006-22.006 22.006-0.896 0-1.779-0.054-2.647-0.158l0.105 0.010c-0.153 0.002-0.335 0.003-0.516 0.003-10.23 0-19.766-2.97-27.793-8.095l0.208 0.124-4.458 13.090c9.98 5.846 21.977 9.299 34.78 9.299 0.228 0 0.455-0.001 0.683-0.003h-0.035c32.986 0 40.953-22.338 40.953-43.823v-40.313zM1272.542 692.013c-21.342 0.427-45.412-3.296-45.412-24.117-0.045-0.467-0.071-1.009-0.071-1.557 0-9.443 7.655-17.097 17.097-17.097 0.409 0 0.814 0.014 1.216 0.043l-0.054-0.003c0.257-0.009 0.558-0.014 0.861-0.014 11.683 0 21.639 7.391 25.448 17.753l0.060 0.188c0.587 1.795 0.926 3.861 0.926 6.005 0 0.065 0 0.129-0.001 0.194v-0.010 18.615z" />
<glyph unicode="&#xe91e;" horiz-adv-x="3130" d="M1321.605 794.455h19.469v-67.086h0.427c7.037 11.775 19.717 19.537 34.21 19.537 0.82 0 1.635-0.025 2.443-0.074l-0.111 0.005c26.559 0 45.056-22.148 45.056-54.541 0.261-1.941 0.41-4.185 0.41-6.464 0-27.394-21.515-49.763-48.568-51.131l-0.122-0.005c-0.601-0.034-1.304-0.053-2.012-0.053-14.546 0-27.206 8.074-33.743 19.986l-0.1 0.2h-0.498l-1.091-17.69h-16.837c0.664 7.351 0.854 18.188 0.854 27.674v129.642zM1341.074 680.18c0.002-2.517 0.244-4.976 0.703-7.358l-0.039 0.244c3.409-13.185 15.172-22.777 29.185-22.836h0.007c20.631 0 32.559 16.6 32.559 41.19 0 21.722-11.074 40.1-31.895 40.1-14.312-0.291-26.209-10.292-29.387-23.67l-0.042-0.209c-0.693-2.413-1.091-5.185-1.091-8.050 0-0.055 0-0.109 0-0.164v0.008z" />
<glyph unicode="&#xe91f;" horiz-adv-x="3130" d="M1446.481 794.455h19.469v-157.221h-19.469z" />
<glyph unicode="&#xe920;" horiz-adv-x="3130" d="M1508.279 687.531c-0.093-0.945-0.146-2.043-0.146-3.154 0-18.859 15.288-34.148 34.148-34.148 0.894 0 1.78 0.034 2.657 0.102l-0.116-0.007c0.606-0.018 1.318-0.028 2.033-0.028 9.966 0 19.472 1.97 28.149 5.543l-0.492-0.179 3.557-13.706c-9.99-4.347-21.629-6.876-33.857-6.876-0.702 0-1.403 0.008-2.101 0.025l0.104-0.002c-0.859-0.053-1.864-0.083-2.875-0.083-27.608 0-49.988 22.38-49.988 49.988 0 1.456 0.062 2.898 0.184 4.323l-0.013-0.186c-0.211 1.763-0.332 3.805-0.332 5.875 0 28.337 22.593 51.398 50.748 52.151l0.070 0.001c24.608-0.509 44.363-20.577 44.363-45.26 0-1.842-0.11-3.657-0.324-5.441l0.021 0.215c0.006-0.3 0.010-0.653 0.010-1.007 0-2.927-0.245-5.797-0.716-8.59l0.042 0.301zM1565.191 701.474c0.175 1.172 0.275 2.524 0.275 3.899 0 15.1-12.033 27.39-27.033 27.805l-0.038 0.001c-16.62-1.215-29.669-14.907-29.855-31.687v-0.019z" />
<glyph unicode="&#xe921;" horiz-adv-x="3130" d="M1696.493 634.744c-0.133-0.001-0.29-0.002-0.448-0.002-28.197 0-51.055 22.858-51.055 51.055 0 1.436 0.059 2.859 0.176 4.265l-0.012-0.184c-0.121 1.338-0.19 2.893-0.19 4.465 0 28.97 23.485 52.454 52.454 52.454 0.3 0 0.6-0.003 0.899-0.008l-0.045 0.001c0.328 0.008 0.714 0.012 1.102 0.012 27.988 0 50.676-22.688 50.676-50.676 0-1.49-0.064-2.965-0.19-4.422l0.013 0.189c0.129-1.38 0.203-2.985 0.203-4.607 0-28.996-23.506-52.502-52.502-52.502-0.288 0-0.575 0.002-0.862 0.007l0.043-0.001h-0.237zM1697.11 649.376c18.615 0 32.559 17.501 32.559 41.854 0 18.188-9.059 40.953-32.061 40.953s-32.748-21.342-32.748-41.617c0-23.5 13.28-41.19 32.132-41.19z" />
<glyph unicode="&#xe922;" horiz-adv-x="3130" d="M1773.302 715.371c0 11.311-0.237 20.133-0.925 29.002h17.263l1.091-17.501h0.427c6.971 12.009 19.771 19.956 34.426 19.956 0.352 0 0.703-0.005 1.053-0.014l-0.052 0.001c14.821 0 37.942-8.869 37.942-45.601v-64.027h-19.516v61.821c0 17.263-6.426 31.895-24.781 31.895-12.275-0.388-22.539-8.57-26.031-19.744l-0.054-0.2c-0.858-2.66-1.352-5.721-1.352-8.897 0-0.057 0-0.113 0-0.17v0.009-64.62h-19.469v78.089z" />
<glyph unicode="&#xe923;" horiz-adv-x="3130" d="M1964.386 770.102v-25.634h27.84v-14.821h-27.84v-57.766c0-13.28 3.794-20.821 14.56-20.821 0.444-0.020 0.966-0.031 1.49-0.031 3.499 0 6.879 0.505 10.073 1.446l-0.252-0.064 0.854-14.821c-4.949-1.716-10.653-2.708-16.589-2.708-0.237 0-0.474 0.002-0.71 0.005h0.036c-0.388-0.019-0.843-0.030-1.301-0.030-7.725 0-14.714 3.149-19.755 8.233l-0.002 0.002c-4.816 6.741-7.7 15.149-7.7 24.231 0 1.379 0.067 2.743 0.197 4.088l-0.013-0.171v58.454h-16.6v14.821h16.6v19.706z" />
<glyph unicode="&#xe924;" horiz-adv-x="3130" d="M2013.094 794.455h19.469v-66.825h0.427c3.29 5.837 8.038 10.509 13.761 13.616l0.182 0.091c5.635 3.499 12.473 5.573 19.795 5.573 0.052 0 0.104 0 0.156 0h-0.008c14.394 0 37.396-8.869 37.396-45.838v-63.766h-19.469v61.655c0 17.501-6.426 31.895-24.781 31.895-12.149-0.354-22.349-8.315-26.027-19.269l-0.058-0.2c-0.879-2.379-1.388-5.126-1.388-7.993 0-0.458 0.013-0.914 0.039-1.366l-0.003 0.063v-64.62h-19.469z" />
<glyph unicode="&#xe925;" horiz-adv-x="3130" d="M2145.913 687.531c-0.091-0.938-0.143-2.027-0.143-3.128 0-18.872 15.299-34.171 34.171-34.171 0.885 0 1.762 0.034 2.63 0.1l-0.115-0.007c0.606-0.018 1.318-0.028 2.033-0.028 9.966 0 19.472 1.97 28.149 5.543l-0.492-0.179 3.557-13.706c-10.005-4.347-21.659-6.875-33.903-6.875-0.686 0-1.371 0.008-2.054 0.024l0.101-0.002c-0.859-0.053-1.864-0.083-2.875-0.083-27.608 0-49.988 22.38-49.988 49.988 0 1.456 0.062 2.898 0.184 4.323l-0.013-0.186c-0.211 1.763-0.332 3.805-0.332 5.875 0 28.337 22.593 51.398 50.748 52.151l0.070 0.001c24.608-0.509 44.363-20.577 44.363-45.26 0-1.842-0.11-3.657-0.324-5.441l0.021 0.215c0.006-0.3 0.010-0.653 0.010-1.007 0-2.927-0.245-5.797-0.716-8.59l0.042 0.301zM2202.826 701.474c0.17 1.158 0.268 2.494 0.268 3.853 0 15.107-12.023 27.407-27.023 27.851l-0.041 0.001c-16.63-1.203-29.691-14.899-29.879-31.686v-0.019z" />
<glyph unicode="&#xe926;" horiz-adv-x="3130" d="M2299.838 764.149c-6.747 0.198-12.141 5.715-12.141 12.492 0 6.902 5.595 12.497 12.497 12.497 6.858 0 12.427-5.525 12.496-12.367v-0.007c0.004-0.115 0.006-0.251 0.006-0.387 0-6.758-5.478-12.236-12.236-12.236-0.152 0-0.304 0.003-0.455 0.008l0.022-0.001zM2290.471 637.282v107.162h19.469v-107.162z" />
<glyph unicode="&#xe927;" horiz-adv-x="3130" d="M2341.835 784.519c10.554 1.997 22.694 3.139 35.101 3.139 0.657 0 1.313-0.003 1.969-0.010l-0.1 0.001c1.411 0.116 3.053 0.183 4.712 0.183 14.025 0 26.942-4.743 37.235-12.713l-0.14 0.104c8.182-7.379 13.302-18.018 13.302-29.852 0-0.476-0.008-0.951-0.025-1.423l0.002 0.069c0.035-0.646 0.054-1.402 0.054-2.163 0-11.539-4.538-22.017-11.927-29.749l0.015 0.016c-11.009-10.231-25.813-16.51-42.084-16.51-1.237 0-2.466 0.036-3.685 0.108l0.168-0.008c-0.596-0.018-1.296-0.029-1.999-0.029-4.771 0-9.431 0.477-13.935 1.385l0.449-0.076v-59.806h-19.279v147.309zM2361.114 712.786c4.298-0.993 9.232-1.563 14.3-1.563 0.592 0 1.182 0.008 1.77 0.023l-0.087-0.002c23.429 0 37.396 11.501 37.396 31.634s-13.967 29.429-35.191 29.429c-0.263 0.003-0.575 0.004-0.886 0.004-6.116 0-12.1-0.562-17.904-1.638l0.602 0.093z" />
<glyph unicode="&#xe928;" horiz-adv-x="3130" d="M2456.751 794.455h19.516v-66.825h0.427c3.288 5.837 8.038 10.51 13.761 13.616l0.182 0.091c5.635 3.499 12.473 5.573 19.795 5.573 0.052 0 0.104 0 0.156 0h-0.008c14.394 0 37.396-8.869 37.396-45.838v-63.766h-19.469v61.655c0 17.501-6.426 31.895-24.781 31.895-12.149-0.354-22.349-8.315-26.027-19.269l-0.058-0.2c-0.879-2.379-1.388-5.126-1.388-7.993 0-0.458 0.013-0.914 0.039-1.366l-0.003 0.063v-64.62h-19.516z" />
<glyph unicode="&#xe929;" horiz-adv-x="3130" d="M2622.177 634.744c-0.133-0.001-0.29-0.002-0.448-0.002-28.197 0-51.055 22.858-51.055 51.055 0 1.436 0.059 2.859 0.176 4.265l-0.012-0.184c-0.12 1.331-0.188 2.878-0.188 4.442 0 28.983 23.495 52.478 52.478 52.478 0.316 0 0.632-0.003 0.947-0.008l-0.047 0.001c0.328 0.008 0.714 0.012 1.102 0.012 27.988 0 50.676-22.688 50.676-50.676 0-1.49-0.064-2.965-0.19-4.422l0.013 0.189c0.13-1.388 0.205-3.001 0.205-4.631 0-28.983-23.495-52.478-52.478-52.478-0.297 0-0.594 0.002-0.89 0.007l0.045-0.001h-0.308zM2622.841 649.376c18.544 0 32.559 17.501 32.559 41.854 0 18.188-9.059 40.953-32.132 40.953s-32.796-21.342-32.796-41.617c0-23.5 13.28-41.19 32.132-41.19z" />
<glyph unicode="&#xe92a;" horiz-adv-x="3130" d="M2699.009 715.371c0 11.311-0.237 20.133-0.854 29.002h17.263l1.091-17.501h0.427c6.971 12.009 19.771 19.956 34.426 19.956 0.352 0 0.703-0.005 1.053-0.014l-0.052 0.001c14.821 0 37.942-8.869 37.942-45.601v-64.027h-19.469v61.821c0 17.263-6.426 31.895-24.781 31.895-15.316-0.652-27.486-13.228-27.486-28.645 0-0.125 0.001-0.25 0.002-0.375v0.019-64.62h-19.469z" />
<glyph unicode="&#xe92b;" horiz-adv-x="3130" d="M2831.805 687.531c-0.091-0.938-0.143-2.027-0.143-3.128 0-18.872 15.299-34.171 34.171-34.171 0.885 0 1.762 0.034 2.63 0.1l-0.115-0.007c0.606-0.018 1.318-0.028 2.033-0.028 9.966 0 19.472 1.97 28.149 5.543l-0.492-0.179 3.557-13.706c-10.005-4.347-21.659-6.875-33.903-6.875-0.686 0-1.371 0.008-2.054 0.024l0.101-0.002c-0.859-0.053-1.864-0.083-2.875-0.083-27.608 0-49.988 22.38-49.988 49.988 0 1.456 0.062 2.898 0.184 4.323l-0.013-0.186c-0.211 1.763-0.332 3.805-0.332 5.875 0 28.337 22.593 51.398 50.748 52.151l0.070 0.001c24.605-0.479 44.368-20.539 44.368-45.214 0-1.858-0.112-3.69-0.33-5.489l0.021 0.217c0.006-0.3 0.010-0.654 0.010-1.009 0-2.927-0.245-5.796-0.716-8.589l0.042 0.301zM2888.718 701.474c0.175 1.172 0.275 2.524 0.275 3.899 0 15.1-12.033 27.39-27.033 27.805l-0.038 0.001c-16.641-1.181-29.715-14.89-29.879-31.689v-0.016z" />
<glyph unicode="&#xe92c;" horiz-adv-x="3130" d="M896.563 536.167l-131.278-386.531h60.114l39.175 118.568h127.129l40.313-118.568h61.655l-131.824 386.531zM927.723 472.638c4.411-17.263 9.248-35.191 15.366-54.541l35.381-102.443h-100.688l34.883 103.13c5.312 16.694 10.339 34.764 15.058 53.854z" />
<glyph unicode="&#xe92d;" horiz-adv-x="3130" d="M1263.721 435.977c-1.421 0.066-3.087 0.104-4.762 0.104-36.075 0-68.069-17.47-87.985-44.411l-0.21-0.298-2.371 38.44h-53.45l0.308-4.885c1.589-23.927 2.371-50.32 2.371-88.143v-297.866h58.454v138.985c18.879-21.143 46.216-34.39 76.647-34.39 1.157 0 2.31 0.019 3.459 0.057l-0.167-0.004c0.298-0.003 0.65-0.004 1.002-0.004 34.465 0 65.559 14.434 87.567 37.586l0.049 0.051c24.4 27.924 39.281 64.71 39.281 104.972 0 2.647-0.064 5.279-0.191 7.894l0.014-0.369c0.063 1.652 0.099 3.592 0.099 5.54 0 36.895-12.838 70.791-34.291 97.465l0.235-0.302c-20.515 24.273-50.979 39.583-85.020 39.583-0.365 0-0.729-0.002-1.093-0.005h0.056zM1249.16 387.554c52.17 0 75.457-48.281 75.457-96.159 0-61.655-29.737-100.071-77.662-100.071-33.188 0.053-61.022 22.915-68.667 53.746l-0.102 0.487c-1.334 5.286-2.099 11.354-2.099 17.602 0 0.481 0.005 0.962 0.014 1.441l-0.001-0.072v46.953c0.252 5.265 0.93 10.218 2.006 15.021l-0.109-0.579c0.308 1.589 0.617 3.178 0.854 4.743 7.81 32.362 36.181 56.152 70.23 56.888l0.081 0.001z" />
<glyph unicode="&#xe92e;" horiz-adv-x="3130" d="M1564.788 435.977c-1.421 0.066-3.087 0.104-4.762 0.104-36.075 0-68.069-17.47-87.985-44.411l-0.21-0.298-2.371 38.44h-53.45l0.308-4.885c1.589-23.998 2.371-50.32 2.371-88.143v-297.866h58.501v138.985c18.853-21.124 46.16-34.361 76.557-34.361 1.097 0 2.191 0.017 3.28 0.051l-0.159-0.004c0.31-0.003 0.676-0.005 1.043-0.005 34.453 0 65.534 14.435 87.526 37.586l0.049 0.052c24.4 27.924 39.281 64.71 39.281 104.972 0 2.647-0.064 5.279-0.191 7.894l0.014-0.369c0.063 1.652 0.099 3.592 0.099 5.54 0 36.895-12.838 70.791-34.291 97.465l0.235-0.302c-20.497 24.258-50.939 39.558-84.955 39.558-0.312 0-0.625-0.001-0.936-0.004h0.048zM1550.276 387.554c52.17 0 75.409-48.281 75.409-96.159 0-61.655-29.808-100.071-77.662-100.071-33.188 0.053-61.022 22.915-68.667 53.746l-0.102 0.487c-1.334 5.285-2.099 11.353-2.099 17.599 0 0.482 0.005 0.964 0.014 1.444l-0.001-0.072v46.953c0.222 5.273 0.876 10.256 1.931 15.088l-0.105-0.575c0.308 1.589 0.545 3.13 0.854 4.743 7.895 32.35 36.302 56.104 70.375 56.816l0.078 0.001z" />
<glyph unicode="&#xe92f;" horiz-adv-x="3130" d="M1941.977 372.449c-54.541 21.105-72.042 37.752-72.042 68.485 0 25.824 20.56 51.909 66.398 51.909 0.949 0.024 2.066 0.038 3.186 0.038 24.050 0 46.607-6.393 66.063-17.573l-0.646 0.342 4.956-3.059 16.6 48.779-3.249 1.897c-22.733 12.112-49.714 19.225-78.356 19.225-2.383 0-4.754-0.049-7.113-0.147l0.338 0.011c-74.556 0-126.631-44.012-126.631-107.043 0-50.794 32.63-86.294 102.632-111.762 49.633-18.544 68.058-37.586 68.058-70.145 0-36.851-28.456-59.735-74.295-59.735-0.052 0-0.114 0-0.175 0-31.135 0-60.193 8.891-84.774 24.271l0.672-0.392-5.075 3.249-15.675-49.941 2.869-1.897c28.101-15.981 61.736-25.401 97.571-25.401 0.429 0 0.858 0.001 1.286 0.004h-0.066c100.498 0 136.116 61.276 136.116 113.825 0.095 54.043-28.551 87.408-98.649 115.058z" />
<glyph unicode="&#xe930;" horiz-adv-x="3130" d="M2145.913 496.447l-57.339-17.999v-48.637h-41.997v-46.763h41.997v-143.159c-0.301-3.042-0.472-6.575-0.472-10.148 0-24.053 7.771-46.29 20.94-64.339l-0.216 0.311c13.593-13.764 32.464-22.289 53.326-22.289 1.136 0 2.267 0.025 3.39 0.075l-0.16-0.006c0.571-0.009 1.244-0.013 1.919-0.013 15.43 0 30.264 2.557 44.099 7.27l-0.962-0.285 3.296 1.162-2.822 46.811-5.62-1.707c-7.071-2.034-15.193-3.203-23.587-3.203-1.262 0-2.518 0.026-3.767 0.079l0.179-0.006c-22.646 0-32.322 14.228-32.322 47.973v141.523h70.5v46.716h-70.5z" />
<glyph unicode="&#xe931;" horiz-adv-x="3130" d="M2361.351 435.977c-81.836 0-138.938-61.086-138.938-148.423 0-84.776 55.276-143.941 134.456-143.941h0.545c66.967 0 138.938 46.645 138.938 149.040 0.060 1.572 0.094 3.418 0.094 5.271 0 37.759-14.177 72.207-37.498 98.311l0.126-0.144c-23.76 24.64-57.059 39.941-93.933 39.941-1.333 0-2.661-0.020-3.985-0.060l0.194 0.005zM2359.644 389.831c52.644 0 76.571-51.292 76.571-98.957 0-58.644-32.677-101.162-77.662-101.162h-0.545c-44.368 0-76.571 41.807-76.571 99.455-0.024 50.107 24.164 100.664 78.184 100.664z" />
<glyph unicode="&#xe932;" horiz-adv-x="3130" d="M2675.509 433.298l-3.486 0.925c-4.264 1.16-9.159 1.827-14.21 1.827-0.123 0-0.246 0-0.369-0.001h0.019c-32.158-0.7-59.765-19.496-73.105-46.582l-0.218-0.489-1.707 40.953h-52.526l0.308-4.909c1.541-23.144 2.205-49.135 2.205-84.207l-0.545-191.013h58.454v149.040c-0.001 0.207-0.002 0.453-0.002 0.698 0 7.744 0.578 15.353 1.694 22.786l-0.103-0.838c2.919 32.191 29.045 57.423 61.37 58.923l0.143 0.005c5.584-0.051 11.024-0.403 16.377-1.040l-0.702 0.068 6.237-0.664v54.541z" />
<glyph unicode="&#xe933;" horiz-adv-x="3130" d="M2806.906 436.523c-77.852 0-132.203-62.177-132.203-151.245 0-85.748 54.114-141.191 137.823-141.191 1.421-0.032 3.095-0.051 4.774-0.051 31.679 0 61.828 6.551 89.166 18.373l-1.457-0.561 3.486 1.589-11.193 43.586-4.885-1.968c-20.051-8.333-43.341-13.173-67.761-13.173-1.931 0-3.854 0.030-5.77 0.090l0.28-0.007c-1.9-0.158-4.112-0.248-6.345-0.248-44.908 0-81.314 36.405-81.314 81.314 0 1.305 0.031 2.603 0.092 3.893l-0.007-0.182 188.76-0.545 0.735 3.723c1.155 6.429 1.815 13.83 1.815 21.385 0 1.069-0.013 2.135-0.040 3.198l0.003-0.157c0.024 60.944-30.472 132.18-115.959 132.18zM2802.993 392.083c0.78 0.038 1.694 0.059 2.613 0.059 15.693 0 29.918-6.286 40.294-16.478l-0.009 0.008c12.511-14.45 20.133-33.43 20.133-54.191 0-0.073 0-0.146 0-0.219v0.011h-133.294c5.383 33.721 26.488 70.809 70.263 70.809z" />
<glyph unicode="&#xe934;" horiz-adv-x="3130" d="M3130.43 74.392c0-0.007 0-0.015 0-0.024 0-76.419-61.95-138.369-138.369-138.369-0.008 0-0.017 0-0.025 0h-2853.644c-0.007 0-0.015 0-0.024 0-76.419 0-138.369 61.95-138.369 138.369 0 0.008 0 0.017 0 0.025v-0.001 747.215c0 0.007 0 0.015 0 0.024 0 76.419 61.95 138.369 138.369 138.369 0.008 0 0.017 0 0.025 0h2853.644c76.422-0.013 138.369-61.969 138.369-138.392v-747.215z" />
<glyph unicode="&#xe935;" horiz-adv-x="3130" d="M234.764 765.572v-693.433l349.704 346.716z" />
<glyph unicode="&#xe936;" horiz-adv-x="3130" d="M678.374 511.932l-443.61 256.13v-2.514l349.704-346.716z" />
<glyph unicode="&#xe937;" horiz-adv-x="3130" d="M234.764 72.116v-2.561l443.61 256.13-93.906 93.147z" />
<glyph unicode="&#xe938;" horiz-adv-x="3130" d="M678.351 511.932l-93.882-93.1 93.882-93.147 161.252 93.147z" />
<glyph unicode="&#xe939;" horiz-adv-x="3130" d="M2436.262 283.262c-0.308-0.004-0.671-0.006-1.035-0.006-12.646 0-24.665 2.682-35.52 7.507l0.557-0.221c-11.142 5.092-20.366 12.703-27.229 22.142l-0.136 0.196h-2.205c1.359-10.016 2.159-21.633 2.205-33.428v-83.053h-30.519v292.199h24.852l4.221-27.603h1.47c6.946 10.175 16.185 18.298 27.004 23.741l0.409 0.186c10.073 4.653 21.86 7.366 34.28 7.366 0.554 0 1.106-0.005 1.658-0.016l-0.083 0.001c1.222 0.071 2.651 0.112 4.089 0.112 23.283 0 44.073-10.672 57.745-27.392l0.106-0.133c13.679-21.824 21.792-48.346 21.792-76.764 0-28.67-8.258-55.411-22.526-77.975l0.354 0.6c-13.791-16.866-34.599-27.547-57.902-27.547-1.262 0-2.517 0.031-3.763 0.093l0.175-0.007zM2431.852 466.331c-1.509 0.15-3.261 0.236-5.033 0.236-15.661 0-29.762-6.679-39.61-17.344l-0.033-0.037c-9.054-13.62-14.446-30.353-14.446-48.346 0-2.18 0.079-4.342 0.235-6.482l-0.017 0.287v-6.782c-0.234-2.574-0.367-5.568-0.367-8.593 0-19.306 5.43-37.344 14.845-52.67l-0.25 0.438c9.935-11.372 24.463-18.517 40.66-18.517 1.673 0 3.327 0.076 4.961 0.225l-0.21-0.015c0.474-0.017 1.030-0.027 1.589-0.027 16.379 0 30.807 8.353 39.256 21.031l0.108 0.172c9.401 14.998 14.976 33.225 14.976 52.754 0 1.963-0.056 3.913-0.168 5.849l0.012-0.268c0.123 1.826 0.193 3.959 0.193 6.108 0 19.216-5.595 37.126-15.246 52.188l0.232-0.387c-8.956 12.314-23.317 20.228-39.526 20.228-0.761 0-1.517-0.017-2.269-0.052l0.107 0.004z" />
<glyph unicode="&#xe93a;" horiz-adv-x="3130" d="M2590.685 286.937h-30.543v286.318h30.543z" />
<glyph unicode="&#xe93b;" horiz-adv-x="3130" d="M2766.332 286.937l-6.047 28.693h-1.47c-7.869-10.739-17.962-19.383-29.643-25.367l-0.473-0.22c-10.236-4.288-22.131-6.779-34.608-6.779-1.006 0-2.008 0.016-3.005 0.048l0.146-0.004c-1.192-0.076-2.585-0.119-3.988-0.119-16.417 0-31.456 5.897-43.116 15.688l0.103-0.084c-10.558 10.263-17.11 24.601-17.11 40.469 0 1.222 0.039 2.434 0.115 3.637l-0.008-0.164q0 61.039 97.676 64.027l34.219 1.091v12.497c0.108 1.246 0.17 2.697 0.17 4.162 0 11.669-3.906 22.426-10.481 31.034l0.091-0.124c-7.514 7.111-17.684 11.484-28.875 11.484-1.339 0-2.663-0.063-3.97-0.185l0.167 0.013c-21.008-0.873-40.518-6.502-57.731-15.832l0.7 0.347-9.367 23.382c19.775 10.737 43.274 17.11 68.248 17.263h0.047c1.869 0.162 4.044 0.255 6.241 0.255 17.878 0 34.323-6.133 47.347-16.409l-0.162 0.123c10.945-11.873 17.657-27.794 17.657-45.283 0-2.132-0.1-4.241-0.295-6.323l0.020 0.266v-137.539h-22.575zM2697.302 308.493c1.053-0.064 2.285-0.1 3.525-0.1 15.873 0 30.354 5.957 41.331 15.757l-0.061-0.053c10.14 10.426 16.393 24.678 16.393 40.391 0 1.207-0.037 2.406-0.11 3.595l0.008-0.163v18.236l-30.614-1.257c-1.060 0.036-2.306 0.057-3.556 0.057-17.821 0-34.662-4.198-49.588-11.659l0.642 0.291c-9.77-6.122-16.171-16.83-16.171-29.033 0-0.765 0.025-1.524 0.075-2.277l-0.005 0.102c-0.047-0.644-0.074-1.396-0.074-2.154 0-9.107 3.883-17.307 10.084-23.034l0.021-0.019c6.979-5.475 15.887-8.78 25.568-8.78 0.891 0 1.776 0.028 2.653 0.083l-0.12-0.006z" />
<glyph unicode="&#xe93c;" horiz-adv-x="3130" d="M2806.669 488.621h32.748l44.178-115.011c6.323-15.391 12.506-34.369 17.397-53.86l0.649-3.052h1.47q2.371 9.367 10.031 32.132t49.941 139.72h32.748l-86.721-229.476c-6.118-19.066-16.5-35.31-30.070-48.237l-0.046-0.044c-10.902-8.879-24.963-14.258-40.28-14.258-0.687 0-1.372 0.011-2.053 0.032l0.1-0.002c-0.004 0-0.009 0-0.014 0-9.783 0-19.3 1.141-28.424 3.297l0.835-0.166v24.354c6.499-1.405 13.965-2.21 21.619-2.21 0.361 0 0.722 0.002 1.083 0.005h-0.055c21.596 0.168 39.687 14.979 44.843 34.986l0.071 0.324 11.193 28.693z" />
<glyph unicode="&#xe93d;" horiz-adv-x="3130" d="M1870.433 469.888c18.178-12.559 29.937-33.284 29.937-56.756 0-25.746-14.148-48.187-35.093-59.974l-0.345-0.178c-6.513-4.83-10.937-12.162-11.845-20.547l-0.012-0.131c0.54-7.669 4.745-14.252 10.858-18.060l0.098-0.057 15.177-11.857c20.357-12.438 34.068-34.016 35.42-58.884l0.008-0.187c0-39.649-38.369-79.678-110.908-79.678-61.205 0-90.704 29.073-90.704 60.351 0.889 22.317 13.677 41.454 32.161 51.323l0.327 0.159c23.472 12.079 51.195 19.228 80.571 19.397h0.055c-7.328 7.417-12.047 17.428-12.658 28.533l-0.005 0.113c0.171 6.037 1.712 11.676 4.322 16.669l-0.101-0.211c-4.743-0.427-9.296-0.854-13.517-0.854-0.999-0.053-2.168-0.084-3.345-0.084-36.699 0-66.474 29.646-66.682 66.296v0.020c0.458 22.681 10.797 42.858 26.875 56.465l0.111 0.092c19.069 14.574 43.244 23.352 69.47 23.352 2.131 0 4.248-0.058 6.351-0.172l-0.293 0.013h86.839l-26.986-15.177zM1840.435 282.55c-2.339 0.289-5.047 0.453-7.794 0.453-0.662 0-1.321-0.010-1.978-0.029l0.097 0.002c-15.901-0.297-31.113-2.754-45.512-7.090l1.191 0.308c-20.141-4.955-35.051-22.298-36.276-43.315l-0.006-0.128c0-29.927 29.144-51.482 74.247-51.482 40.455 0 62.011 19.469 62.011 45.601 0.047 21.579-13.92 32.914-45.981 55.727zM1852.671 362.655c6.59 7.475 10.612 17.351 10.612 28.166 0 0.936-0.030 1.866-0.090 2.787l0.006-0.126c0 30.353-18.117 77.615-53.118 77.615-11.843-0.155-22.405-5.513-29.524-13.887l-0.047-0.056c-5.847-7.952-9.358-17.938-9.358-28.745 0-0.866 0.023-1.727 0.067-2.582l-0.005 0.12c0-28.267 16.457-75.101 52.763-75.101 11.15 0.318 21.2 4.783 28.713 11.899l-0.020-0.019z" />
<glyph unicode="&#xe93e;" horiz-adv-x="3130" d="M1604.864 289.332c-1.004-0.036-2.183-0.057-3.367-0.057-54.888 0-99.384 44.496-99.384 99.384 0 0.020 0 0.040 0 0.060v-0.003c1.071 56.799 47.368 102.433 104.322 102.433 1.674 0 3.339-0.039 4.994-0.117l-0.234 0.009c0.644 0.015 1.402 0.024 2.163 0.024 54.377 0 98.459-44.082 98.459-98.459 0-0.334-0.002-0.667-0.005-0.999v0.051c-0.222-56.606-46.161-102.408-102.798-102.408-1.46 0-2.912 0.030-4.357 0.091l0.207-0.007zM1657.508 323.433c8.016 11.883 12.795 26.525 12.795 42.283 0 1.576-0.048 3.141-0.142 4.694l0.010-0.213c0 37.088-17.69 107.778-69.884 107.778-14.542-0.108-27.811-5.475-38.017-14.292l0.075 0.063c-12.104-11.635-19.623-27.963-19.623-46.047 0-1.888 0.082-3.757 0.243-5.604l-0.017 0.24c0-41.688 20.631-110.292 71.615-110.292 17.478 0.028 33.005 8.359 42.849 21.259l0.096 0.131z" />
<glyph unicode="&#xe93f;" horiz-adv-x="3130" d="M1376.574 289.332c-1.004-0.036-2.183-0.057-3.367-0.057-54.888 0-99.384 44.496-99.384 99.384 0 0.020 0 0.040 0 0.060v-0.003c1.071 56.799 47.368 102.433 104.322 102.433 1.674 0 3.339-0.039 4.994-0.117l-0.234 0.009c0.644 0.015 1.402 0.024 2.163 0.024 54.377 0 98.459-44.082 98.459-98.459 0-0.334-0.002-0.667-0.005-0.999v0.051c-0.222-56.606-46.161-102.408-102.798-102.408-1.46 0-2.912 0.030-4.357 0.091l0.207-0.007zM1429.265 323.433c8.016 11.883 12.795 26.525 12.795 42.283 0 1.576-0.048 3.141-0.142 4.694l0.010-0.213c0 37.088-17.69 107.778-69.884 107.778-14.542-0.108-27.811-5.475-38.017-14.292l0.075 0.063c-12.104-11.635-19.623-27.963-19.623-46.047 0-1.888 0.082-3.757 0.243-5.604l-0.017 0.24c0-41.688 20.631-110.292 71.615-110.292 17.48 0.051 33.006 8.375 42.874 21.26l0.095 0.13z" />
<glyph unicode="&#xe940;" horiz-adv-x="3130" d="M1241.691 295.972l-60.541-13.944c-20.646-3.941-44.721-6.503-69.283-7.103l-0.554-0.011c-116.908 0-161.252 85.938-161.252 153.261 0 82.144 63.102 158.336 171.070 158.336 23.064-0.038 45.358-3.274 66.481-9.287l-1.719 0.418c21.316-5.55 39.973-14.584 56.329-26.573l-0.46 0.322-35.12-33.484-14.821-3.367 10.6 16.955c-22.216 24.483-54.158 39.795-89.677 39.795-0.32 0-0.639-0.001-0.958-0.004h0.049c-0.189 0.001-0.412 0.002-0.636 0.002-64.566 0-116.908-52.341-116.908-116.908 0-2.846 0.102-5.668 0.302-8.463l-0.022 0.375c-0.049-1.428-0.077-3.106-0.077-4.79 0-82.705 67.046-149.751 149.751-149.751 0.077 0 0.154 0 0.231 0h-0.012c0.904-0.023 1.968-0.036 3.036-0.036 18.368 0 35.822 3.915 51.573 10.957l-0.802-0.321v68.105l-63.908-3.367 33.839 18.236h89.59l-11.027-10.6c-2.243-1.55-3.803-3.952-4.214-6.728l-0.007-0.054c-0.427-3.794-0.854-16.102-0.854-20.323v-51.648z" />
<glyph unicode="&#xe941;" horiz-adv-x="3130" d="M2004.201 308.137c-13.944 1.281-16.884 3.794-16.884 20.323v239.673c0 0.925 0.119 1.826 0.237 2.751 1.707 14.821 5.928 17.311 19.089 24.97h-60.564l-31.776-15.295h32.369v-261.466c0-8.442-1.66-9.723-11.454-22.409h74.982l15.675 9.296c-7.233 0.877-14.442 1.304-21.674 2.158z" />
<glyph unicode="&#xe942;" horiz-adv-x="3130" d="M2176.504 304.225c-4.6-2.514-9.248-5.502-13.825-7.588-11.458-5.078-24.822-8.034-38.877-8.034-0.68 0-1.358 0.007-2.035 0.021l0.101-0.002c-1.204-0.058-2.614-0.090-4.032-0.090-19.456 0-37.469 6.181-52.181 16.686l0.273-0.186c-26.17 20.105-42.871 51.412-42.871 86.619 0 0.744 0.007 1.487 0.022 2.228l-0.002-0.111c-0.012 0.573-0.019 1.249-0.019 1.926 0 52.635 42.669 95.305 95.305 95.305 0.349 0 0.697-0.002 1.045-0.006h-0.053c0.237 0.002 0.518 0.004 0.799 0.004 15.716 0 30.401-4.412 42.884-12.065l-0.358 0.204c14.478-9.589 25.022-24.118 29.28-41.139l0.101-0.478-98.791-39.957-32.369-2.514c10.458-53.379 46.645-84.468 86.602-84.468 18.976 0.619 36.574 5.992 51.803 14.957l-0.511-0.278zM2137.021 429.575c7.968 2.94 12.189 5.454 12.189 11.311-2.833 20.526-20.261 36.164-41.342 36.164-0.097 0-0.194 0-0.291-0.001h0.015c-27.284-1.63-48.794-24.155-48.794-51.704 0-2.38 0.161-4.723 0.471-7.018l-0.030 0.267c0-7.114 0.854-14.679 1.281-22.267z" />
<glyph unicode="&#xe943;" horiz-adv-x="3130" d="M2217.149 488.076v-27.721h-3.296v27.721h-9.177v2.869h21.722v-2.869z" />
<glyph unicode="&#xe944;" horiz-adv-x="3130" d="M2254.972 460.284v28.029h-0.19l-8.561-28.029h-2.632l-8.632 28.029h-0.119v-28.029h-3.059v30.591h5.264l7.778-24.733h0.119l7.659 24.733h5.336v-30.591z" />
<glyph unicode="&#xe945;" horiz-adv-x="3130" d="M1034.031 668.797h-21.058c-1.428 9.343-3.519 17.638-6.302 25.609l0.302-0.994h-30.353c-2.63-7.035-4.788-15.328-6.099-23.9l-0.090-0.715h-19.777q0 2.561 15.366 42.115c5.339 11.838 10.578 26.296 14.801 41.182l0.566 2.333h24.852c4.452-17.218 9.204-31.507 14.776-45.379l-0.88 2.481c4.708-11.374 9.46-25.606 13.326-40.199l0.57-2.533zM1003.677 705.956c-7.47 22.646-11.264 34.835-11.264 36.661h-1.043c-3.951-15.104-7.925-27.319-12.487-39.242l0.868 2.581z" />
<glyph unicode="&#xe946;" horiz-adv-x="3130" d="M1118.878 668.797h-16.22c-5.426 10.841-11.428 20.171-18.296 28.78l0.25-0.324c-8.443 10.712-15.675 22.964-21.152 36.129l-0.38 1.031h-1.043c0.993-7.768 1.594-16.82 1.659-25.999v-0.086c0-10.837 0.308-23.998 0.925-39.602h-16.196q1.020 20.37 0.972 44.795c0 15.983-0.308 29.618-0.972 40.811h19.516c4.506-10.611 9.944-19.765 16.425-28.065l-0.205 0.273c7.6-10.132 14.25-21.681 19.425-34.002l0.399-1.071h0.972c-0.937 7.818-1.512 16.957-1.588 26.214l-0.001 0.108q0 17.809-0.925 36.543h16.457q-0.925-16.339-0.925-40.811t0.901-44.724z" />
<glyph unicode="&#xe947;" horiz-adv-x="3130" d="M1214.159 714.564c0.002-0.16 0.003-0.348 0.003-0.537 0-12.313-4.595-23.552-12.165-32.097l0.044 0.051c-7.684-8.612-18.814-14.008-31.205-14.008-0.818 0-1.631 0.024-2.438 0.070l0.112-0.005c-6.498 0-15.414 0.237-26.796 0.806q0.83 19.825 0.854 44.795 0 23.951-0.854 40.811h11.501q2.846 0 8.442 0.19c3.723 0.119 6.189 0.19 7.28 0.19 1.211 0.118 2.619 0.185 4.042 0.185 11.755 0 22.44-4.584 30.364-12.062l-0.022 0.020c6.721-7.28 10.842-17.047 10.842-27.776 0-0.222-0.002-0.445-0.005-0.666v0.033zM1196.161 711.742c0.009 0.29 0.015 0.631 0.015 0.973 0 7.771-2.783 14.891-7.407 20.42l0.041-0.050c-5.102 5.374-12.297 8.717-20.274 8.717-0.768 0-1.529-0.031-2.282-0.092l0.099 0.006c-2.79-0.049-5.481-0.271-8.119-0.658l0.341 0.041c0.427-8.75 0.664-17.927 0.664-27.484 0-10.458 0.237-20.868 0.664-31.16 2.568-0.531 5.524-0.841 8.551-0.854h0.010c0.576-0.047 1.247-0.074 1.924-0.074 7.608 0 14.419 3.412 18.986 8.789l0.030 0.036c4.229 5.637 6.772 12.751 6.772 20.458 0 0.336-0.005 0.671-0.014 1.004l0.001-0.049z" />
<glyph unicode="&#xe948;" horiz-adv-x="3130" d="M1301.994 668.773h-19.469c-3.021 10.93-7.010 20.46-12.024 29.335l0.333-0.641c-2.842 3.381-7.074 5.514-11.803 5.514-0.478 0-0.951-0.022-1.418-0.064l0.060 0.004c-2.561 0-4.956 0-7.28 0 0-11.264 0.19-22.646 0.617-34.148h-18.307q0.83 19.825 0.854 44.795 0 23.951-0.854 40.811h11.383q1.921 0 8.252 0.19c4.15 0.119 8.086 0.19 11.62 0.19q30.211 0 30.164-20.631c0.003-0.129 0.004-0.281 0.004-0.433 0-10.676-7.214-19.668-17.034-22.365l-0.163-0.038v-0.972c5.139-1.83 9.236-5.51 11.566-10.22l0.053-0.119c4.625-8.621 9.164-18.925 12.945-29.587l0.501-1.62zM1277.332 729.314c0 8.679-5.62 13.090-16.837 13.090-0.178 0.002-0.389 0.003-0.6 0.003-3.636 0-7.192-0.338-10.641-0.983l0.356 0.055c0.498-6.782 0.735-15.675 0.735-26.559 2.371 0 4.458-0.119 6.118-0.119 13.944-0.047 20.868 4.79 20.868 14.513z" />
<glyph unicode="&#xe949;" horiz-adv-x="3130" d="M1396.256 713.213c0.018-0.485 0.028-1.056 0.028-1.628 0-12.296-4.705-23.494-12.414-31.89l0.031 0.034c-7.363-8.172-17.982-13.287-29.796-13.287-0.279 0-0.558 0.003-0.836 0.009l0.042-0.001c-0.262-0.006-0.571-0.010-0.88-0.010-11.107 0-21.12 4.682-28.174 12.179l-0.019 0.020c-7.255 7.694-11.715 18.093-11.715 29.534 0 0.505 0.009 1.008 0.026 1.508l-0.002-0.073c-0.018 0.485-0.028 1.056-0.028 1.628 0 12.296 4.705 23.494 12.414 31.89l-0.031-0.034c7.363 8.172 17.982 13.287 29.796 13.287 0.279 0 0.558-0.003 0.836-0.009l-0.042 0.001c0.262 0.006 0.571 0.010 0.88 0.010 11.107 0 21.12-4.682 28.174-12.179l0.019-0.020c7.256-7.667 11.717-18.043 11.717-29.462 0-0.53-0.010-1.058-0.029-1.584l0.002 0.076zM1378.139 711.244c0.021 0.448 0.033 0.972 0.033 1.5 0 7.865-2.691 15.102-7.202 20.84l0.055-0.073c-4.008 5.225-10.255 8.561-17.281 8.561-0.036 0-0.071 0-0.107 0h0.005c-6.734-0.051-12.668-3.428-16.248-8.567l-0.043-0.065c-4.222-5.648-6.76-12.768-6.76-20.481 0-0.461 0.009-0.92 0.027-1.377l-0.002 0.066c-0.019-0.427-0.030-0.927-0.030-1.43 0-7.887 2.689-15.147 7.2-20.911l-0.056 0.075c4.004-5.225 10.247-8.561 17.269-8.561 0.015 0 0.030 0 0.044 0h-0.002c6.734 0.051 12.668 3.428 16.248 8.567l0.043 0.065c4.263 5.681 6.827 12.85 6.827 20.619 0 0.421-0.008 0.841-0.022 1.258l0.002-0.060z" />
<glyph unicode="&#xe94a;" horiz-adv-x="3130" d="M1433.391 668.797h-18.615q0.83 20.37 0.854 44.795c0 15.983-0.308 29.618-0.854 40.811h18.615c-0.545-11.027-0.854-24.662-0.854-40.811q-0.024-24.804 0.854-44.795z" />
<glyph unicode="&#xe94b;" horiz-adv-x="3130" d="M1528.672 714.564c0.003-0.213 0.005-0.464 0.005-0.716 0-12.251-4.549-23.439-12.051-31.967l0.047 0.054c-7.684-8.612-18.814-14.008-31.205-14.008-0.818 0-1.631 0.024-2.438 0.070l0.112-0.005c-6.498 0-15.414 0.237-26.796 0.806q0.83 19.825 0.854 44.795 0 23.951-0.854 40.811h11.501q2.846 0 8.442 0.19c3.723 0.119 6.189 0.19 7.28 0.19 1.218 0.119 2.633 0.187 4.064 0.187 11.756 0 22.442-4.585 30.366-12.064l-0.022 0.020c6.636-7.22 10.704-16.892 10.704-27.515 0-0.298-0.003-0.595-0.010-0.891l0.001 0.044zM1510.745 711.742c0.009 0.29 0.015 0.631 0.015 0.973 0 7.771-2.783 14.891-7.407 20.42l0.041-0.050c-5.102 5.374-12.297 8.717-20.274 8.717-0.768 0-1.529-0.031-2.282-0.092l0.099 0.006c-2.79-0.049-5.481-0.271-8.119-0.658l0.341 0.041c0.427-8.75 0.664-17.927 0.664-27.484 0-10.458 0.237-20.868 0.664-31.16 2.568-0.531 5.524-0.841 8.551-0.854h0.010c0.576-0.047 1.247-0.074 1.924-0.074 7.608 0 14.419 3.412 18.986 8.789l0.030 0.036c4.229 5.637 6.772 12.751 6.772 20.458 0 0.336-0.005 0.671-0.014 1.004l0.001-0.049z" />
<glyph unicode="&#xe94c;" horiz-adv-x="3130" d="M1655.113 668.797h-21.058c-1.428 9.343-3.519 17.638-6.302 25.608l0.302-0.994h-30.448c-2.63-7.035-4.788-15.328-6.099-23.9l-0.090-0.715h-19.777q0 2.561 15.366 42.115c5.339 11.837 10.577 26.295 14.8 41.181l0.566 2.334h24.852c4.452-17.218 9.205-31.507 14.776-45.379l-0.88 2.481c4.672-11.286 9.454-25.513 13.384-40.089l0.607-2.643zM1624.76 705.956c-7.47 22.646-11.264 34.835-11.264 36.661h-1.043c-3.95-15.102-7.924-27.317-12.487-39.24l0.867 2.579z" />
<glyph unicode="&#xe94d;" horiz-adv-x="3130" d="M1731.803 731.994c0.034-0.496 0.054-1.076 0.054-1.66 0-8.993-4.635-16.903-11.646-21.472l-0.099-0.060c-7.644-4.711-16.906-7.502-26.821-7.502-0.642 0-1.281 0.012-1.917 0.035l0.092-0.003c-2.087 0-3.557 0-4.411 0.119 0-8.252 0.237-19.089 0.735-32.63h-18.473q0.83 18.971 0.854 44.795 0 23.714-0.854 40.811h11.454q2.371 0 9.367 0.19c4.6 0.119 8.561 0.19 11.999 0.19 0.358 0.012 0.78 0.019 1.202 0.019 7.366 0 14.243-2.099 20.063-5.732l-0.16 0.093c5.211-3.516 8.593-9.399 8.593-16.072 0-0.394-0.012-0.785-0.035-1.174l0.003 0.053zM1714.848 728.389c0 9.367-6.237 14.086-18.663 14.086-3.493-0.004-6.901-0.358-10.194-1.028l0.329 0.056c0.498-8.252 0.735-17.69 0.735-28.148 1.091 0 2.371-0.119 3.794-0.119 15.983-0.024 23.998 5.004 23.998 15.153z" />
<glyph unicode="&#xe94e;" horiz-adv-x="3130" d="M1810.651 731.994c0.034-0.496 0.054-1.076 0.054-1.66 0-8.993-4.635-16.903-11.646-21.472l-0.099-0.060c-7.644-4.711-16.906-7.502-26.821-7.502-0.642 0-1.281 0.012-1.917 0.035l0.092-0.003c-2.087 0-3.557 0-4.411 0.119 0-8.252 0.237-19.089 0.735-32.63h-18.473q0.83 18.971 0.854 44.795 0 23.714-0.854 40.811h11.454q2.371 0 9.367 0.19c4.6 0.119 8.561 0.19 11.999 0.19 0.358 0.012 0.78 0.019 1.202 0.019 7.366 0 14.243-2.099 20.063-5.732l-0.16 0.093c5.212-3.485 8.598-9.347 8.598-15.999 0-0.42-0.013-0.837-0.040-1.25l0.003 0.056zM1793.695 728.389c0 9.367-6.237 14.086-18.663 14.086-3.486-0.006-6.885-0.36-10.17-1.028l0.329 0.056c0.498-8.252 0.735-17.69 0.735-28.148 1.091 0 2.371-0.119 3.794-0.119 16.030-0.024 23.974 5.004 23.974 15.153z" />
<glyph unicode="&#xe94f;" horiz-adv-x="3130" d="M1939.605 713.213c0.018-0.485 0.028-1.056 0.028-1.628 0-12.296-4.705-23.494-12.414-31.89l0.031 0.034c-7.363-8.172-17.982-13.287-29.796-13.287-0.279 0-0.558 0.003-0.836 0.009l0.042-0.001c-0.262-0.006-0.571-0.010-0.88-0.010-11.107 0-21.12 4.682-28.174 12.179l-0.019 0.020c-7.255 7.694-11.715 18.093-11.715 29.534 0 0.505 0.009 1.008 0.026 1.508l-0.002-0.073c-0.018 0.485-0.028 1.056-0.028 1.628 0 12.296 4.705 23.494 12.414 31.89l-0.031-0.034c7.363 8.172 17.982 13.287 29.796 13.287 0.279 0 0.558-0.003 0.836-0.009l-0.042 0.001c0.262 0.006 0.571 0.010 0.88 0.010 11.107 0 21.12-4.682 28.174-12.179l0.019-0.020c7.256-7.667 11.717-18.043 11.717-29.462 0-0.53-0.010-1.058-0.029-1.584l0.002 0.076zM1921.417 711.244c0.021 0.448 0.033 0.972 0.033 1.5 0 7.865-2.691 15.102-7.202 20.84l0.055-0.073c-4.008 5.225-10.255 8.561-17.281 8.561-0.036 0-0.071 0-0.107 0h0.005c-6.734-0.051-12.668-3.428-16.248-8.567l-0.043-0.065c-4.222-5.648-6.76-12.768-6.76-20.481 0-0.461 0.009-0.92 0.027-1.377l-0.002 0.066c-0.022-0.455-0.034-0.987-0.034-1.523 0-7.858 2.692-15.087 7.203-20.816l-0.055 0.072c4.004-5.225 10.247-8.561 17.269-8.561 0.015 0 0.030 0 0.044 0h-0.002c6.734 0.051 12.668 3.428 16.248 8.567l0.043 0.065c4.263 5.676 6.827 12.84 6.827 20.604 0 0.427-0.008 0.851-0.023 1.274l0.002-0.061z" />
<glyph unicode="&#xe950;" horiz-adv-x="3130" d="M2028.721 668.797h-16.22c-5.426 10.841-11.428 20.171-18.296 28.78l0.25-0.324c-8.443 10.712-15.675 22.964-21.152 36.129l-0.38 1.031h-1.043c0.993-7.768 1.594-16.82 1.659-25.999v-0.086c0-10.837 0.308-23.998 0.925-39.602h-16.149q1.020 20.37 0.972 44.795c0 15.983-0.308 29.618-0.972 40.811h19.516c4.506-10.611 9.944-19.765 16.425-28.065l-0.205 0.273c7.6-10.132 14.25-21.681 19.426-34.002l0.399-1.070h0.972c-0.937 7.818-1.513 16.957-1.588 26.215l-0.001 0.107q0 17.809-0.925 36.543h16.457q-0.925-16.339-0.925-40.811t0.854-44.724z" />
<glyph unicode="&#xe951;" glyph-name="search" d="M971.668-64.102v0l-369.035 369.035c-63.056-51.802-144.584-83.206-233.446-83.206-203.841 0-369.087 165.246-369.087 369.087s165.246 369.087 369.087 369.087c203.841 0 369.087-165.246 369.087-369.087 0-88.863-31.404-170.39-83.719-234.091l0.513 0.644 369.035-368.984-52.383-52.485zM370.469 884.882c-0.015 0-0.033 0-0.051 0-163.061 0-295.249-132.187-295.249-295.249s132.187-295.249 295.249-295.249c163.061 0 295.249 132.187 295.249 295.249v0c-0.204 162.961-132.24 295.016-295.175 295.249h-0.023z" />
<glyph unicode="&#xe952;" glyph-name="right-arrow" horiz-adv-x="556" d="M107.543 960l-107.543-108.308 403.597-403.692-403.597-403.597 107.543-108.308 403.597 404.361c27.345 27.622 44.24 65.633 44.24 107.591s-16.895 79.969-44.252 107.603l0.013-0.013z" />
<glyph unicode="&#xe953;" glyph-name="add" d="M928.023 479.977h-384v384h-64v-384h-384v-64h384v-352.023h64v352.023h384v64z" />
<glyph unicode="&#xe954;" glyph-name="less" d="M96.023 479.977h832v-64h-832v64z" />
<glyph unicode="&#xe955;" glyph-name="ICON-Location" d="M512 6.187v0l-18.219 12.373c-64.644 45.966-121.048 96.641-171.189 153.012l-0.886 1.014c-42.7 47.114-79.817 100.524-109.544 158.356l-1.944 4.161c-30.733 58.851-49.182 128.381-50.215 202.123l-0.004 0.33c0.033 94.407 39.573 179.573 102.985 239.868l0.14 0.132c63.926 61.524 150.975 99.419 246.874 99.419 0.703 0 1.406-0.002 2.109-0.006h-0.108c0.594 0.004 1.297 0.006 2.001 0.006 95.899 0 182.948-37.895 246.988-99.528l-0.114 0.109c63.552-60.426 103.093-145.592 103.125-239.994v-0.006c0-291.029-320-509.653-333.739-519.040l-18.219-12.373zM224 537.557c5.727-112.624 49.918-213.942 119.579-292.053l-0.411 0.469c50.008-61.315 105.427-115.069 166.474-161.849l2.358-1.735c63.426 48.509 118.86 102.264 167.47 161.809l1.404 1.775c69.226 77.652 113.4 178.968 119.079 290.445l0.046 1.139c-3.114 154.060-128.738 277.757-283.252 277.757-1.669 0-3.335-0.014-4.998-0.043l0.25 0.003c-1.412 0.025-3.078 0.040-4.748 0.040-154.515 0-280.138-123.697-283.248-277.467l-0.005-0.29zM384 537.557c1.355 68.468 57.178 123.453 125.844 123.453 0.758 0 1.515-0.007 2.27-0.020l-0.114 0.002c0.236 0.002 0.516 0.002 0.795 0.002 34.861 0 66.505-13.776 89.785-36.181l-0.041 0.039c22.963-22.064 37.293-52.965 37.504-87.214v-0.039c-1.403-68.478-57.245-123.452-125.927-123.452-0.729 0-1.456 0.006-2.182 0.019l0.109-0.001c-0.642-0.012-1.399-0.018-2.158-0.018-68.659 0-124.483 54.956-125.882 123.28l-0.002 0.131zM448 537.557c-0.026-0.687-0.041-1.494-0.041-2.304 0-35.346 28.654-64 64-64s64 28.654 64 64c0 35.332-28.63 63.976-63.956 64h-0.002c-0.308 0.005-0.672 0.009-1.037 0.009-34.334 0-62.25-27.475-62.962-61.638l-0.001-0.066z" />
<glyph unicode="&#xe956;" glyph-name="pax" d="M896 0v160c0 53.019-42.981 96-96 96v0h-320c-53.019 0-96-42.981-96-96v0-160h-64v160c0 88.366 71.634 160 160 160v0h320c88.366 0 160-71.634 160-160v0-160zM480 512c0 88.366 71.634 160 160 160s160-71.634 160-160c0-88.366-71.634-160-160-160v0c-88.317 0.121-159.879 71.683-160 159.988v0.012zM544 512c0-53.019 42.981-96 96-96s96 42.981 96 96c0 53.019-42.981 96-96 96v0c-52.99-0.073-95.927-43.010-96-95.993v-0.007zM64 352v128c0 70.692 57.308 128 128 128v0h224v-64h-224c-35.346 0-64-28.654-64-64v0-128zM158.080 768c0 70.692 57.308 128 128 128s128-57.308 128-128c0-70.692-57.308-128-128-128v0c-70.692 0-128 57.308-128 128v0zM222.080 768c0-35.346 28.654-64 64-64s64 28.654 64 64c0 35.346-28.654 64-64 64-0.075 0-0.15 0-0.225 0h0.012c-35.254-0.121-63.787-28.728-63.787-64 0 0 0 0 0 0v0z" />
<glyph unicode="&#xe957;" glyph-name="pinned" d="M51.365-64v0l-51.365 51.365 282.249 281.958-199.019 198.903 119.040 119.098c19.643 19.6 46.756 31.719 76.7 31.719s57.057-12.12 76.702-31.721l49.97-49.97 190.661 190.487c-17.284 19.091-27.862 44.535-27.862 72.45 0 29.928 12.158 57.015 31.805 76.593l0.003 0.003 82.939 83.113 341.217-340.869-83.229-82.823c-19.584-19.667-46.683-31.836-76.624-31.836-27.929 0-53.385 10.589-72.572 27.971l0.092-0.082-190.661-190.719 49.914-49.914c19.572-19.655 31.672-46.765 31.672-76.7s-12.1-57.044-31.675-76.704l-119.036-119.094-199.019 198.961-281.842-282.191zM278.998 546.987c-10.052-0.028-19.141-4.128-25.71-10.736l-68.025-68.025 346.963-347.021 68.023 68.023c6.612 6.555 10.706 15.641 10.706 25.683s-4.094 19.128-10.703 25.68l-295.543 295.717c-6.585 6.578-15.67 10.654-25.707 10.679h-0.005zM645.869 676.649v0l-190.313-190.313 94.779-93.677 189.268 190.081-93.735 93.909zM683.131 857.211v0l-31.864-31.806c-6.494-6.57-10.505-15.606-10.505-25.578 0-0.047 0-0.094 0-0.141v0.007c0.013-9.903 4.025-18.866 10.506-25.364l187.062-187.062c6.555-6.612 15.641-10.706 25.683-10.706s19.128 4.094 25.68 10.703l0.003 0.003 31.864 31.458-238.37 238.486z" />
<glyph unicode="&#xe958;" glyph-name="circle-right-arrow" d="M512-64c-0.011 0-0.024 0-0.037 0-282.77 0-512 229.23-512 512 0 141.394 57.315 269.402 149.98 362.057v0c92.659 92.659 220.665 149.969 362.057 149.969 282.784 0 512.026-229.242 512.026-512.026 0-141.392-57.31-269.399-149.969-362.057v0c-92.14-92.623-219.689-149.945-360.626-149.945-0.503 0-1.006 0.001-1.509 0.002h0.078zM512 886.857c-0.001 0-0.002 0-0.004 0-242.374 0-438.857-196.483-438.857-438.857 0-121.188 49.121-230.903 128.54-310.32v0c79.418-79.418 189.133-128.539 310.321-128.539 242.376 0 438.86 196.484 438.86 438.86 0 121.188-49.121 230.903-128.539 310.321v0c-78.98 79.4-188.314 128.538-309.125 128.538-0.421 0-0.841-0.001-1.261-0.002h0.065zM444.465 692.005l-50.615-50.956 189.83-189.83-189.83-189.83 50.615-51.005 189.83 190.171c12.892 12.973 20.86 30.851 20.86 50.59s-7.968 37.618-20.863 50.594l0.004-0.004z" />
<glyph unicode="&#xe959;" glyph-name="close" d="M918.733 809.318l-45.466 45.414-361.267-361.626-361.267 361.626-45.466-45.414 361.626-361.318-361.626-361.267 45.466-45.414 361.267 361.574 361.267-361.574 45.466 45.414-361.626 361.267 361.626 361.318z" />
<glyph unicode="&#xe95a;" glyph-name="Email-Icon" d="M864 64h-704c-53.019 0-96 42.981-96 96v0 672h896v-672c0-53.019-42.981-96-96-96v0zM128 730.88v-570.88c0-17.673 14.327-32 32-32v0h704c17.673 0 32 14.327 32 32v0 570.88l-321.92-272.32c-16.621-14.16-38.345-22.774-62.080-22.774s-45.459 8.614-62.215 22.886l0.135-0.112zM183.36 768l307.84-260.48c5.557-4.775 12.839-7.682 20.8-7.682s15.243 2.907 20.842 7.718l-0.042-0.036 307.84 260.48z" />
<glyph unicode="&#xe95b;" d="M80.842 474.947c0 238.122 193.036 431.158 431.158 431.158s431.158-193.036 431.158-431.158c0-238.122-193.036-431.158-431.158-431.158s-431.158 193.036-431.158 431.158z" />
<glyph unicode="&#xe95c;" d="M537.223 333.069l30.316 30.531-113.772 113.799 113.772 113.772-30.316 30.531-113.772-113.987c-7.708-7.786-12.471-18.502-12.471-30.329s4.763-22.543 12.474-30.333l-0.004 0.004z" />
<glyph unicode="&#xe95d;" d="M943.158 474.947c0-238.122-193.036-431.158-431.158-431.158s-431.158 193.036-431.158 431.158c0 238.122 193.036 431.158 431.158 431.158s431.158-193.036 431.158-431.158z" />
<glyph unicode="&#xe95e;" glyph-name="google" d="M522.24 521.173v-175.573h290.389c-11.733-75.307-87.723-220.757-290.389-220.757-174.72 0-317.397 144.597-317.397 323.157s142.72 323.157 317.397 323.157c99.413 0 166.016-42.197 204.16-78.891l138.837 133.888c-89.173 83.243-204.8 133.845-342.997 133.845-283.093 0-512-228.907-512-512s228.907-512 512-512c295.509 0 491.52 207.744 491.52 500.309 0 33.621-3.627 59.307-8.064 84.864z" />
<glyph unicode="&#xe95f;" d="M485.942 620.194l-30.316-30.531 113.772-113.799-113.772-113.772 30.316-30.531 113.772 113.987c7.708 7.786 12.471 18.502 12.471 30.329s-4.763 22.543-12.474 30.333l0.004-0.004z" />
<glyph unicode="&#xe960;" d="M884.364 517.818c0-205.651-166.713-372.364-372.364-372.364s-372.364 166.713-372.364 372.364c0 205.651 166.713 372.364 372.364 372.364s372.364-166.713 372.364-372.364z" />
<glyph unicode="&#xe961;" d="M567.249 644.585l-26.182-26.368 98.257-98.281-98.257-98.257 26.182-26.368 98.257 98.444c6.657 6.725 10.77 15.979 10.77 26.193s-4.113 19.469-10.773 26.197l0.003-0.003z" />
<glyph unicode="&#xe962;" d="M381.068 644.585l-26.182-26.368 98.257-98.281-98.257-98.257 26.182-26.368 98.257 98.444c6.657 6.725 10.77 15.979 10.77 26.193s-4.113 19.469-10.773 26.197l0.003-0.003z" />
<glyph unicode="&#xe964;" d="M839.68 509.44c0-180.973-146.707-327.68-327.68-327.68s-327.68 146.707-327.68 327.68c0 180.973 146.707 327.68 327.68 327.68s327.68-146.707 327.68-327.68z" />
<glyph unicode="&#xe965;" d="M695.050 523.51h-168.96v168.96h-28.16v-168.96h-168.96v-28.16h168.96v-154.89h28.16v154.89h168.96v28.16z" />
<glyph unicode="&#xe966;" d="M839.68 509.44c0-180.973-146.707-327.68-327.68-327.68s-327.68 146.707-327.68 327.68c0 180.973 146.707 327.68 327.68 327.68s327.68-146.707 327.68-327.68z" />
<glyph unicode="&#xe967;" d="M328.97 523.51h366.080v-28.16h-366.080v28.16z" />
<glyph unicode="&#xf09a;" glyph-name="facebook" horiz-adv-x="602" d="M548 944v-150.857h-89.714c-70.286 0-83.429-33.714-83.429-82.286v-108h167.429l-22.286-169.143h-145.143v-433.714h-174.857v433.714h-145.714v169.143h145.714v124.571c0 144.571 88.571 223.429 217.714 223.429 61.714 0 114.857-4.571 130.286-6.857z" />
<glyph unicode="&#xf0e1;" glyph-name="linkedin" horiz-adv-x="878" d="M199.429 593.714v-566.286h-188.571v566.286h188.571zM211.429 768.571c0.571-54.286-40.571-97.714-106.286-97.714v0h-1.143c-63.429 0-104 43.429-104 97.714 0 55.429 42.286 97.714 106.286 97.714 64.571 0 104.571-42.286 105.143-97.714zM877.714 352v-324.571h-188v302.857c0 76-27.429 128-95.429 128-52 0-82.857-34.857-96.571-68.571-4.571-12.571-6.286-29.143-6.286-46.286v-316h-188c2.286 513.143 0 566.286 0 566.286h188v-82.286h-1.143c24.571 38.857 69.143 95.429 170.857 95.429 124 0 216.571-81.143 216.571-254.857z" />
</font>
</defs>
</svg>
