<?xml version="1.0" standalone="no"?>
<!DOCTYPE svg PUBLIC "-//W3C//DTD SVG 20010904//EN"
 "http://www.w3.org/TR/2001/REC-SVG-20010904/DTD/svg10.dtd">
<svg version="1.0" xmlns="http://www.w3.org/2000/svg"
 width="500.000000pt" height="500.000000pt" viewBox="0 0 500.000000 500.000000"
 preserveAspectRatio="xMidYMid meet">
<metadata>
Created by potrace 1.15, written by Peter Selinger 2001-2017
</metadata>
<g transform="translate(0.000000,500.000000) scale(0.100000,-0.100000)"
fill="#000000" stroke="none">
<path d="M956 3642 c-4 -7 -15 -12 -25 -12 -23 0 -44 -23 -32 -36 22 -23 44
-175 46 -314 2 -122 5 -145 18 -148 19 -4 24 14 32 114 5 65 1 105 -19 205
-29 138 -31 166 -14 171 6 2 9 10 6 18 -3 10 -6 11 -12 2z"/>
<path d="M756 3598 c-32 -18 -191 -63 -361 -103 -33 -8 -89 -24 -125 -36 -36
-12 -78 -23 -95 -26 -31 -4 -44 -8 -128 -38 -36 -13 -47 -21 -47 -38 0 -16 3
-18 9 -9 4 7 23 16 42 19 19 3 52 11 74 18 22 8 52 16 67 19 15 2 31 7 36 9
11 8 327 92 394 106 21 5 43 13 50 18 7 6 27 13 43 16 55 9 138 36 149 47 13
14 -84 11 -108 -2z"/>
<path d="M845 3105 c-27 -13 -55 -24 -62 -24 -7 -1 -34 -8 -60 -16 -26 -8 -64
-20 -83 -26 -19 -6 -44 -14 -55 -19 -25 -11 -187 -60 -216 -65 -12 -2 -56 -16
-98 -29 -42 -14 -116 -37 -166 -52 -90 -26 -114 -38 -102 -50 6 -7 43 4 287
84 74 24 149 46 165 49 17 3 37 9 46 14 9 4 47 18 85 30 38 11 85 27 104 34
19 8 53 19 75 26 22 6 58 19 80 28 22 9 43 15 47 14 5 -2 8 4 8 12 0 18 5 19
-55 -10z"/>
<path d="M835 3045 c-39 -13 -539 -175 -737 -238 -78 -25 -98 -35 -98 -50 0
-14 5 -17 23 -11 36 11 351 112 487 156 314 101 384 117 455 104 55 -11 94
-17 177 -27 171 -21 178 -21 178 -4 0 8 -3 15 -7 15 -19 1 -274 30 -323 38
-30 5 -65 14 -77 20 -26 15 -28 14 -78 -3z"/>
<path d="M1350 2940 c0 -10 -5 -22 -10 -25 -7 -4 -7 -12 0 -25 5 -10 10 -26
10 -35 0 -9 10 -29 21 -44 12 -16 18 -34 15 -40 -10 -16 -26 -13 -20 3 3 8 1
17 -5 21 -7 4 -11 -12 -11 -49 0 -54 19 -91 21 -42 2 45 4 49 16 53 26 9 25
-46 -3 -159 -5 -22 -3 -28 10 -28 10 0 16 9 17 23 4 84 15 105 46 89 10 -6 52
-17 93 -26 41 -8 118 -24 170 -36 52 -11 136 -29 185 -40 193 -41 385 -93 440
-120 24 -12 174 -60 186 -60 5 0 51 -20 102 -45 52 -25 99 -45 106 -45 34 0
240 -130 289 -182 l22 -25 -52 -11 c-86 -18 -181 -34 -218 -36 -19 -1 -34 -7
-33 -12 3 -17 -124 -55 -185 -56 -37 0 -48 -3 -33 -7 34 -9 36 -25 6 -41 -14
-7 -25 -17 -25 -21 0 -4 19 3 43 15 23 13 55 26 72 30 16 4 52 18 80 31 55 26
340 85 411 85 47 0 59 14 20 24 -14 3 -42 22 -63 42 -70 67 -117 102 -206 153
-49 28 -92 51 -95 51 -4 0 -20 11 -36 25 -30 26 -41 31 -31 16 3 -5 1 -12 -4
-16 -14 -8 -76 27 -76 44 0 14 -10 18 -70 27 -16 2 -32 9 -33 14 -2 6 -8 7
-14 4 -6 -4 -14 -1 -18 5 -4 7 -20 14 -36 16 -16 2 -29 4 -29 5 0 1 -7 3 -15
6 -8 2 -37 10 -65 18 -81 23 -209 58 -226 61 -9 2 -33 8 -55 14 -58 16 -233
57 -369 86 -66 14 -136 30 -155 35 -19 5 -53 13 -75 17 l-40 9 -5 58 c-4 47
-9 61 -25 67 -17 6 -17 8 -2 8 21 1 23 19 2 27 -8 4 -15 16 -15 29 0 13 -7 25
-15 29 -10 3 -15 -1 -15 -14z"/>
<path d="M1259 2916 c-3 -3 -20 -8 -39 -11 -76 -12 -107 -19 -195 -45 -38 -11
-130 -36 -204 -56 -74 -19 -139 -38 -144 -41 -6 -4 -27 -10 -46 -14 -20 -4
-97 -26 -171 -49 -74 -23 -153 -45 -175 -50 -22 -4 -74 -18 -115 -30 -41 -12
-95 -28 -120 -34 -35 -10 -46 -18 -48 -37 -3 -19 -1 -22 9 -11 7 6 23 12 35
12 13 0 25 4 28 9 6 9 102 37 160 46 21 3 43 9 50 13 6 4 22 8 36 8 14 1 45 9
70 18 45 16 205 64 290 87 52 14 50 14 70 21 8 3 62 18 120 33 123 32 158 41
203 55 18 6 43 10 55 10 11 0 23 4 26 9 3 4 31 11 61 14 54 5 85 19 85 38 0 9
-33 13 -41 5z"/>
<path d="M1465 2810 c-8 -13 18 -28 60 -33 57 -7 356 -68 380 -77 31 -12 235
-53 280 -56 23 -1 45 -3 50 -4 20 -4 35 0 35 10 0 6 -16 10 -36 10 -20 0 -62
6 -93 14 -31 7 -87 19 -126 26 -38 7 -74 16 -80 20 -5 4 -30 10 -55 13 -25 4
-61 11 -80 16 -19 6 -54 13 -78 16 -23 2 -73 12 -110 21 -128 30 -142 32 -147
24z"/>
<path d="M2275 2629 c-4 -5 -5 -12 -2 -15 7 -7 140 -46 165 -47 12 -1 22 -5
22 -8 0 -3 46 -21 103 -40 122 -40 276 -117 390 -193 86 -58 202 -162 229
-207 l16 -25 214 2 c395 5 704 -49 933 -161 200 -98 300 -209 340 -377 48
-203 -14 -379 -191 -550 -71 -68 -115 -99 -214 -148 -122 -61 -233 -91 -455
-122 -139 -20 -601 -17 -748 5 -248 37 -407 95 -542 197 -36 27 -74 54 -85 60
-11 6 -20 15 -20 21 0 6 -13 22 -30 36 -16 13 -30 29 -30 34 0 5 -8 17 -19 28
-10 10 -20 24 -23 31 -5 15 -142 40 -159 30 -16 -10 45 -24 93 -21 28 1 39 -3
48 -19 16 -30 12 -30 -214 -3 -22 2 -44 6 -48 9 -4 3 -8 1 -8 -4 0 -8 103 -27
253 -48 42 -6 50 -11 59 -35 5 -16 14 -29 18 -29 5 0 21 -5 37 -11 22 -8 24
-12 13 -19 -8 -6 -11 -10 -6 -10 5 0 2 -8 -5 -17 -11 -15 -11 -16 0 -6 11 9
20 9 42 -3 16 -8 29 -19 29 -24 0 -5 9 -12 21 -15 15 -5 19 -13 16 -27 -4 -13
-1 -18 8 -15 7 3 63 -19 124 -49 180 -89 396 -130 726 -140 314 -10 631 25
806 90 99 36 209 90 209 103 0 12 33 27 60 28 8 0 16 9 18 19 9 47 49 59 140
42 29 -6 42 -5 42 3 0 6 -16 11 -36 11 -19 0 -45 5 -56 11 -20 11 -19 12 11
39 17 16 31 33 31 38 0 19 36 40 65 38 17 -2 64 -6 105 -10 41 -4 99 -11 129
-17 30 -5 57 -7 60 -4 15 15 -30 27 -155 41 -76 8 -142 19 -147 23 -8 8 14 61
26 61 4 0 7 8 7 18 0 9 8 31 17 47 12 23 16 59 17 151 l1 121 35 -4 c19 -2 71
-7 115 -13 73 -8 95 -7 84 4 -2 2 -31 7 -64 10 -157 15 -177 19 -182 35 -2 9
-9 24 -14 34 -14 25 8 30 77 18 108 -18 184 -23 184 -12 0 6 -6 11 -12 11 -21
0 -270 38 -273 42 -10 12 -34 68 -28 66 4 -2 9 2 11 7 2 6 -5 12 -15 14 -23 4
-54 31 -48 42 3 4 -19 24 -50 44 -30 20 -55 43 -55 51 0 8 -8 17 -17 20 -21 7
-55 22 -132 58 -30 14 -61 26 -68 26 -14 0 -18 16 -5 23 4 2 0 2 -8 0 -8 -2
-41 3 -75 11 -135 34 -284 65 -348 71 -44 5 -70 12 -74 22 -4 11 -8 11 -17 -3
-11 -15 -14 -15 -29 1 -9 9 -17 12 -17 6 0 -6 -7 -11 -15 -11 -8 0 -15 5 -15
11 0 5 5 7 12 3 6 -4 8 -3 4 4 -5 8 -15 8 -37 0 -24 -8 -33 -8 -39 2 -5 9 -13
9 -28 1 -11 -6 -98 -13 -194 -16 -150 -5 -177 -4 -188 10 -9 11 -10 18 -1 28
12 16 5 27 -18 27 -23 0 -107 79 -103 97 2 8 -1 12 -7 9 -5 -4 -25 3 -43 14
-18 11 -40 23 -48 27 -8 3 -29 21 -47 40 -17 18 -36 33 -42 33 -5 0 -62 27
-125 60 -64 32 -116 57 -116 54 0 -2 -10 1 -22 8 -13 6 -30 13 -38 13 -14 2
-125 33 -196 55 -17 6 -39 10 -50 10 -11 0 -29 7 -41 15 -15 10 -24 12 -28 4z"/>
<path d="M1299 2520 c-31 -18 -282 -101 -534 -177 -27 -8 -84 -25 -125 -38
-131 -41 -503 -153 -569 -172 -58 -16 -83 -35 -68 -49 3 -3 38 4 79 16 40 12
118 36 173 52 55 16 134 40 175 53 96 30 228 69 305 90 33 9 69 20 80 25 19 8
134 43 255 77 30 9 70 22 87 30 18 8 71 24 118 36 75 19 85 24 85 44 0 17 -6
23 -22 23 -13 0 -30 -5 -39 -10z"/>
<path d="M870 2433 c-14 -3 -27 -9 -31 -14 -3 -5 -28 -13 -55 -18 -28 -5 -70
-17 -95 -26 -24 -9 -73 -23 -109 -32 -36 -8 -69 -19 -75 -24 -5 -5 -18 -9 -29
-9 -11 0 -45 -8 -75 -19 -31 -10 -90 -29 -131 -41 -41 -13 -101 -31 -133 -41
-32 -10 -74 -21 -93 -25 -31 -6 -52 -20 -42 -29 2 -2 80 19 173 46 94 28 184
54 200 59 17 4 68 20 115 35 47 14 90 27 95 29 70 19 125 38 130 46 4 6 10 8
15 5 7 -4 188 51 199 61 5 5 -25 3 -59 -3z"/>
<path d="M2380 1801 c-93 -101 -142 -222 -140 -349 2 -114 17 -170 59 -212
138 -141 571 -233 1101 -234 192 -1 497 11 510 19 3 2 34 6 70 10 122 12 344
52 400 73 22 8 22 8 55 17 49 13 148 62 172 85 13 11 22 31 22 43 -1 13 -3 16
-5 7 -5 -16 -67 -60 -85 -60 -6 0 -17 -7 -25 -15 -17 -17 -71 -10 -92 12 -7 7
-18 13 -23 13 -16 0 -10 -20 9 -27 28 -11 42 -39 20 -41 -7 0 -23 -4 -35 -7
-15 -5 -23 -3 -23 4 0 6 -4 11 -10 11 -5 0 -7 -7 -4 -15 4 -8 1 -15 -5 -15 -6
0 -16 11 -21 25 -5 14 -15 25 -21 25 -7 0 -5 -9 5 -25 21 -32 20 -38 -3 -25
-14 7 -20 7 -23 -2 -2 -6 -20 3 -41 22 -27 23 -37 28 -37 16 0 -23 -10 -20
-42 11 -15 15 -28 22 -28 15 0 -6 16 -24 35 -39 19 -15 35 -34 35 -40 0 -17
-19 -16 -26 1 -3 7 -21 22 -40 32 -19 10 -34 25 -34 32 0 7 -4 11 -8 8 -5 -3
-18 3 -28 12 -23 22 -54 35 -54 23 0 -5 5 -11 12 -13 6 -2 9 -9 7 -16 -3 -9
-15 -6 -43 9 -21 11 -41 18 -44 14 -7 -7 11 -26 29 -29 8 -2 22 -6 32 -11 10
-4 23 -2 32 5 8 6 20 8 27 4 25 -15 98 -76 98 -83 0 -5 -49 -7 -92 -3 -10 1
-18 9 -18 17 0 8 -4 15 -10 15 -16 0 -12 -22 8 -36 15 -12 14 -13 -15 -14 -23
0 -33 5 -33 15 0 8 -8 15 -17 15 -14 0 -15 -2 -4 -9 10 -7 11 -13 2 -27 -6
-11 -11 -14 -11 -8 0 17 -32 27 -41 13 -9 -16 -49 -19 -49 -5 0 6 -7 2 -15 -8
-15 -20 -15 -20 -15 0 0 16 -2 16 -10 4 -10 -16 -38 -20 -57 -7 -6 4 -14 3
-18 -3 -4 -7 -12 -7 -25 0 -25 13 -30 13 -30 -3 0 -9 -13 -14 -35 -14 -20 0
-34 5 -33 11 2 6 -2 12 -7 14 -6 1 -10 -4 -10 -10 0 -9 -25 -14 -82 -16 -71
-2 -82 -1 -77 13 3 8 1 15 -5 15 -6 0 -11 -7 -11 -15 0 -8 -4 -15 -10 -15 -5
0 -7 8 -4 18 5 14 3 14 -10 -2 -9 -11 -16 -14 -16 -8 0 7 -4 12 -10 12 -5 0
-6 -8 -3 -17 5 -15 4 -16 -8 -7 -8 7 -38 10 -73 7 -41 -3 -62 0 -68 9 -8 10
-11 10 -15 1 -6 -15 -43 -17 -43 -3 0 6 7 10 15 10 17 0 20 16 5 25 -5 3 -10
1 -10 -4 0 -6 -7 -11 -15 -11 -8 0 -13 -6 -11 -12 1 -7 1 -10 -1 -7 -2 4 -22
5 -43 2 -31 -4 -41 -2 -46 11 -3 9 -10 16 -15 16 -4 0 -6 -7 -3 -15 4 -8 1
-15 -5 -15 -6 0 -10 5 -8 11 4 19 -40 30 -53 13 -16 -19 -34 -18 -26 1 5 14 3
14 -15 2 -29 -21 -61 -11 -54 17 6 20 5 19 -15 -3 -12 -14 -24 -21 -28 -15 -4
5 -15 9 -24 10 -77 3 -75 3 -71 29 3 13 11 30 19 36 8 6 14 16 14 21 0 18 -20
-4 -40 -42 -19 -37 -21 -38 -52 -30 -17 6 -35 15 -39 21 -4 7 -9 7 -13 1 -9
-15 -55 -2 -72 22 -12 18 -16 19 -24 6 -5 -8 -10 -10 -10 -4 0 6 -19 11 -42
12 -43 2 -63 11 -40 19 18 7 -14 43 -37 43 -11 -1 -8 -5 8 -14 42 -23 4 -28
-40 -5 -32 16 -39 23 -28 30 10 6 7 9 -12 9 -26 0 -45 23 -33 41 3 5 0 9 -5 9
-6 0 -11 -7 -11 -15 0 -8 -3 -15 -7 -15 -11 0 -33 50 -33 71 0 10 -5 21 -10
24 -10 6 -7 66 5 85 3 5 1 10 -4 10 -12 0 -15 42 -5 53 3 3 8 28 10 54 2 27
10 53 19 59 8 6 12 13 10 16 -8 8 24 77 45 98 11 11 19 23 18 28 -5 15 31 53
47 50 10 -2 20 2 22 8 6 17 -40 13 -57 -5z"/>
<path d="M0 1772 c0 -4 60 -16 133 -27 72 -11 134 -20 137 -20 3 -1 30 -5 60
-9 30 -4 91 -14 135 -21 44 -8 109 -17 145 -20 104 -10 332 -41 645 -90 121
-19 258 -39 305 -46 47 -6 112 -15 145 -20 33 -6 89 -14 125 -19 36 -5 84 -14
108 -18 23 -5 42 -6 42 -1 0 5 -8 9 -17 10 -10 0 -25 2 -33 4 -102 23 -166 35
-191 35 -16 0 -48 5 -71 10 -36 9 -138 24 -438 66 -19 3 -41 7 -49 10 -23 7
-254 40 -351 49 -19 2 -42 5 -50 8 -13 5 -103 15 -295 33 -33 3 -67 10 -76 15
-9 5 -59 13 -110 19 -52 6 -121 15 -154 20 -118 18 -145 20 -145 12z"/>
<path d="M250 1615 c106 -26 322 -58 375 -56 11 0 36 -4 55 -9 19 -5 53 -10
75 -11 22 -2 45 -6 50 -10 6 -4 30 -9 55 -12 144 -16 314 -38 320 -42 10 -6
59 -13 139 -20 35 -3 67 -8 73 -11 5 -3 30 -8 56 -10 26 -2 74 -9 107 -14 33
-5 96 -14 140 -20 44 -5 118 -16 165 -25 47 -8 137 -22 200 -30 63 -8 125 -17
138 -20 12 -3 22 -1 22 4 0 5 -37 14 -82 20 -46 7 -110 16 -143 20 -33 5 -116
18 -185 29 -69 12 -208 33 -310 48 -102 14 -194 28 -205 30 -30 5 -246 36
-275 39 -14 2 -83 13 -155 24 -151 24 -187 29 -275 41 -36 4 -130 18 -210 29
-162 23 -213 26 -130 6z"/>
<path d="M0 1344 c0 -8 3 -13 8 -10 4 2 30 0 57 -6 28 -5 64 -12 80 -14 17 -3
66 -11 110 -19 44 -7 107 -16 140 -19 33 -4 128 -18 210 -32 83 -14 184 -29
225 -35 41 -5 81 -12 88 -14 6 -2 12 -1 12 4 0 8 -23 13 -115 27 -11 1 -58 10
-105 18 -82 15 -154 27 -290 46 -211 30 -289 42 -323 51 -20 5 -42 7 -47 4 -6
-3 -10 -1 -10 4 0 6 -9 11 -20 11 -11 0 -20 -7 -20 -16z"/>
<path d="M0 1131 c0 -6 3 -11 6 -11 3 0 137 -22 297 -49 161 -27 310 -52 332
-55 139 -19 526 -81 690 -110 170 -30 433 -71 549 -86 83 -10 108 -9 93 6 -3
4 -46 10 -94 14 -95 9 -258 32 -338 49 -27 5 -68 12 -90 15 -90 11 -124 19
-119 28 4 6 -8 7 -30 3 -21 -5 -36 -3 -36 3 0 5 -37 15 -82 21 -46 6 -92 13
-103 15 -43 8 -181 27 -310 41 -27 3 -57 8 -65 10 -8 3 -33 7 -55 10 -22 4
-76 13 -120 21 -44 8 -100 17 -125 20 -25 2 -81 11 -125 19 -44 8 -102 19
-130 24 -101 19 -145 22 -145 12z"/>
<path d="M0 1070 c0 -4 21 -11 48 -14 26 -4 88 -13 137 -21 50 -7 128 -19 175
-25 84 -11 195 -29 340 -55 41 -8 116 -19 165 -25 50 -7 124 -18 165 -26 41
-7 96 -15 121 -17 25 -2 50 -7 56 -10 6 -4 48 -11 94 -17 46 -6 107 -15 134
-20 143 -26 298 -50 303 -45 8 8 -73 26 -208 45 -36 5 -159 25 -275 45 -228
39 -443 74 -655 105 -74 10 -175 26 -225 34 -253 43 -375 58 -375 46z"/>
<path d="M0 847 c0 -16 9 -19 130 -37 41 -6 118 -20 170 -31 53 -10 115 -20
138 -22 23 -1 42 -5 42 -9 0 -10 102 -10 117 0 7 5 -30 13 -88 21 -55 6 -128
21 -162 32 -34 11 -112 26 -173 34 -61 8 -125 18 -142 21 -25 5 -32 3 -32 -9z"/>
<path d="M1810 622 c0 -11 46 -20 190 -36 45 -5 223 -31 415 -61 55 -9 117
-20 138 -26 22 -6 75 -12 119 -15 45 -3 84 -7 88 -9 7 -4 112 -23 175 -31 49
-6 209 -31 250 -39 17 -3 55 -10 85 -16 30 -5 65 -12 78 -15 12 -2 22 0 22 5
0 7 -38 19 -85 26 -5 0 -17 4 -25 7 -18 8 -181 33 -304 48 -49 6 -119 17 -155
25 -36 7 -97 16 -136 20 -38 3 -88 10 -111 15 -82 18 -519 85 -618 94 -33 3
-75 9 -93 12 -19 4 -33 2 -33 -4z"/>
<path d="M0 595 c0 -8 38 -18 103 -29 56 -9 136 -23 177 -30 41 -7 167 -30
280 -49 113 -20 246 -43 295 -52 50 -9 106 -18 125 -21 19 -2 55 -8 80 -14 25
-5 108 -21 185 -35 77 -14 167 -30 200 -36 33 -6 82 -15 108 -20 26 -5 60 -9
75 -8 15 0 -16 9 -68 20 -318 64 -518 102 -541 104 -15 2 -35 5 -45 9 -11 3
-46 8 -79 12 -33 3 -63 8 -67 10 -4 3 -63 13 -130 24 -68 11 -148 26 -178 34
-30 8 -98 21 -150 30 -230 38 -288 47 -327 55 -32 6 -43 5 -43 -4z"/>
<path d="M0 536 c0 -8 14 -18 31 -21 20 -5 27 -10 19 -15 -8 -5 -5 -9 9 -13
11 -3 20 -2 19 2 -2 18 4 21 21 11 11 -5 37 -12 58 -14 21 -2 65 -9 98 -15 33
-6 128 -22 210 -36 229 -39 321 -55 435 -77 58 -11 127 -20 154 -19 27 0 77
-5 110 -13 34 -8 82 -17 108 -20 27 -4 48 -12 48 -17 0 -6 4 -8 8 -5 5 3 38 2
73 -2 45 -6 63 -12 61 -21 -2 -9 3 -11 15 -6 10 3 20 7 23 8 3 0 28 -2 57 -6
61 -9 81 -27 29 -27 -19 0 -36 4 -38 8 -1 5 -13 6 -25 3 -43 -11 -8 -31 63
-37 38 -3 96 -10 129 -15 33 -6 119 -19 190 -29 175 -27 245 -38 275 -45 14
-3 36 -8 50 -11 14 -3 41 -9 60 -14 52 -12 158 -24 215 -23 28 1 53 -4 57 -11
5 -7 59 -12 165 -13 l158 -2 -80 14 c-44 8 -116 22 -160 30 -295 55 -726 131
-880 156 -38 6 -113 19 -165 29 -167 32 -473 88 -545 99 -126 19 -513 83 -605
101 -45 8 -312 56 -422 75 -20 3 -28 0 -28 -9z"/>
<path d="M3830 531 c0 -6 17 -13 38 -16 20 -3 57 -10 82 -15 79 -16 125 -24
135 -25 25 -3 164 -27 205 -35 25 -5 63 -11 85 -14 22 -2 99 -15 170 -27 72
-12 151 -23 177 -25 26 -1 52 -5 58 -9 6 -4 36 -11 68 -15 31 -5 69 -12 85
-15 35 -7 36 11 0 20 -15 3 -32 12 -37 20 -6 7 -22 16 -36 20 -24 7 -24 7 -5
-9 20 -15 20 -15 -5 -16 -14 0 -53 7 -88 15 -34 8 -104 19 -155 25 -115 12
-276 39 -302 50 -11 4 -58 13 -105 20 -47 6 -128 20 -180 30 -139 27 -190 33
-190 21z"/>
<path d="M228 428 c12 -12 19 -13 492 -88 143 -22 168 -27 230 -40 57 -12 100
-18 181 -25 35 -3 82 -10 104 -15 86 -20 207 -41 212 -37 2 3 -1 14 -8 25 -9
15 -18 18 -38 12 -14 -4 -46 -1 -71 6 -54 15 -111 23 -203 30 -38 2 -96 9
-130 15 -34 5 -91 14 -127 19 -36 5 -76 12 -90 16 -14 3 -38 8 -55 10 -16 2
-64 10 -105 18 -41 9 -111 20 -156 26 -44 6 -91 13 -105 15 -65 14 -139 21
-131 13z"/>
<path d="M0 397 c0 -7 14 -14 33 -15 17 -1 46 -6 62 -11 17 -5 57 -12 90 -16
33 -3 110 -16 170 -27 61 -11 130 -22 155 -24 25 -3 56 -9 70 -14 32 -11 128
-27 210 -35 36 -4 115 -15 175 -25 61 -11 189 -31 285 -45 96 -15 234 -37 305
-50 180 -32 184 -33 330 -50 72 -8 171 -22 220 -30 50 -8 113 -14 140 -14 47
1 45 2 -40 20 -49 10 -164 27 -255 38 -251 31 -432 58 -570 85 -152 30 -382
65 -509 77 -51 4 -107 13 -125 18 -17 5 -70 15 -118 22 -49 7 -88 16 -88 20 0
4 -19 7 -42 7 -24 1 -73 8 -110 16 -36 8 -91 18 -121 21 -31 3 -101 14 -157
25 -120 24 -110 23 -110 7z"/>
</g>
</svg>
